<?xml version="1.0" standalone="no"?>
<!DOCTYPE svg PUBLIC "-//W3C//DTD SVG 20010904//EN"
 "http://www.w3.org/TR/2001/REC-SVG-20010904/DTD/svg10.dtd">
<svg version="1.0" xmlns="http://www.w3.org/2000/svg"
 width="1024.000000pt" height="1024.000000pt" viewBox="0 0 1024.000000 1024.000000"
 preserveAspectRatio="xMidYMid meet">
<metadata>
Created by potrace 1.14, written by Peter Selinger 2001-2017
</metadata>
<g transform="translate(0.000000,1024.000000) scale(0.100000,-0.100000)"
fill="#000000" stroke="none">
<path d="M2256 8514 c-14 -13 -16 -47 -16 -222 1 -361 48 -611 166 -890 134
-315 271 -495 769 -1012 259 -269 277 -289 269 -301 -4 -7 -3 -9 3 -6 6 4 73
-60 149 -141 77 -81 177 -187 224 -237 183 -194 365 -398 362 -407 -1 -5 2 -7
7 -4 9 6 340 -340 364 -381 5 -7 -100 -133 -265 -320 -150 -170 -288 -327
-306 -348 l-34 -38 -62 62 c-34 34 -86 74 -116 89 -50 26 -55 31 -65 77 -15
68 -37 106 -81 145 -91 80 -217 98 -326 46 -61 -29 -96 -64 -130 -130 -32 -60
-31 -182 1 -253 45 -101 119 -151 254 -173 46 -7 55 -14 200 -165 84 -87 153
-161 154 -164 2 -3 -49 -64 -112 -136 -109 -122 -114 -131 -93 -139 80 -30
111 -47 178 -97 41 -31 91 -73 110 -94 30 -33 26 -31 -35 16 -38 31 -83 63
-98 73 -32 20 -19 26 -112 -56 -22 -20 -51 -45 -65 -57 -16 -13 -20 -20 -11
-21 17 0 106 -55 141 -87 39 -35 15 -27 -37 13 -27 20 -67 46 -90 57 l-43 21
83 77 c64 61 79 80 70 90 -9 9 -29 -4 -93 -64 -45 -43 -87 -77 -93 -77 -7 1
-25 7 -42 15 -25 11 -26 14 -9 14 22 1 134 125 134 148 0 29 -29 8 -93 -67
-38 -44 -72 -80 -76 -80 -9 0 -105 -120 -100 -124 2 -1 22 -8 44 -14 76 -22
293 -170 317 -217 7 -13 -2 -8 -24 13 -19 17 -36 32 -40 32 -3 0 -38 22 -79
49 l-73 49 -25 -24 c-13 -13 -28 -24 -33 -24 -5 0 -6 -4 -3 -10 3 -5 1 -10 -6
-10 -6 0 -29 -18 -51 -40 -36 -35 -38 -41 -22 -47 27 -10 124 -72 124 -80 0
-3 -6 -1 -12 5 -7 5 -46 28 -86 49 l-72 40 80 72 c44 40 80 77 80 82 0 27 -42
1 -108 -66 -40 -41 -76 -75 -80 -75 -4 0 -16 8 -27 17 -16 12 -16 14 -3 10 20
-7 55 32 65 72 3 14 10 32 16 39 6 8 6 12 -2 12 -9 0 -9 5 -1 20 23 43 -11 17
-82 -62 -97 -109 -158 -184 -158 -194 0 -5 27 -17 60 -28 61 -19 161 -83 235
-150 29 -27 22 -23 -28 14 -124 91 -112 91 -201 1 -63 -64 -75 -79 -60 -85 9
-3 15 -9 12 -12 -7 -6 -58 17 -57 25 1 3 36 38 79 76 43 39 78 73 79 78 3 18
-25 4 -73 -38 -56 -47 -76 -47 -76 3 0 17 -4 23 -15 18 -9 -3 -15 0 -15 9 0 9
6 12 17 8 12 -5 15 -2 11 9 -4 9 -1 21 5 27 6 6 9 11 6 11 -3 0 -59 -59 -125
-132 -227 -251 -214 -238 -250 -238 -117 0 -275 -71 -357 -160 -59 -63 -109
-155 -126 -230 -15 -65 -13 -196 4 -259 34 -128 119 -242 244 -323 40 -26 79
-48 85 -48 6 0 22 -12 35 -25 13 -14 27 -25 32 -25 5 0 9 -9 9 -20 0 -13 7
-20 20 -21 11 -1 26 -2 33 -3 6 -1 11 -12 11 -26 -2 -23 -1 -24 13 -5 11 14
17 16 20 7 3 -6 10 -9 16 -5 18 11 38 12 31 2 -3 -5 -10 -6 -16 -3 -7 4 -8 2
-4 -4 5 -9 13 -9 29 0 12 6 24 11 27 11 3 -1 7 1 10 4 3 4 -1 3 -9 -2 -9 -5
-12 -4 -7 3 4 6 13 9 20 6 8 -3 17 -1 20 5 4 6 14 7 23 4 9 -4 14 -2 11 3 -4
5 0 18 8 29 8 10 14 13 14 7 0 -7 7 -12 15 -12 8 0 15 8 15 17 0 9 3 13 7 10
3 -4 19 11 35 33 17 22 34 40 39 40 5 0 9 5 9 11 0 5 -5 7 -10 4 -24 -15 -7 4
17 21 27 17 28 17 13 -2 -14 -18 -14 -18 3 -5 9 8 15 16 12 19 -3 3 18 29 45
58 56 59 119 179 127 244 4 28 13 46 29 57 13 8 21 19 18 24 -3 5 2 9 10 9 9
0 16 5 16 11 0 6 10 20 23 31 12 11 16 17 9 13 -29 -15 -8 7 44 46 36 26 54
46 50 55 -3 8 1 17 9 20 8 4 15 15 15 25 0 21 10 25 26 9 6 -6 15 -5 24 1 13
9 13 10 -2 6 -9 -3 -19 0 -22 8 -3 10 0 12 11 8 11 -4 14 -3 9 6 -4 6 -2 18 4
26 7 8 10 21 7 29 -4 10 0 12 14 9 12 -3 19 0 19 8 0 11 3 11 11 -1 9 -12 10
-10 6 8 -5 19 -2 22 16 18 12 -3 16 -3 10 0 -7 3 -13 10 -13 15 0 6 3 8 8 6 4
-2 15 4 25 15 16 17 11 23 -18 19 -5 -1 -1 5 9 13 10 9 32 14 47 12 26 -3 29
0 29 23 0 27 16 51 33 51 4 0 5 -6 2 -12 -4 -7 6 1 22 18 15 17 36 34 46 37
15 6 17 13 12 37 -4 20 -3 30 5 30 7 0 10 -6 7 -13 -3 -8 -1 -20 4 -28 6 -10
9 -6 9 16 0 17 4 25 8 20 4 -6 12 -10 17 -10 15 0 62 35 48 35 -7 0 -15 -4
-18 -10 -3 -5 -14 -10 -23 -9 -11 0 -12 2 -4 6 6 2 10 9 6 14 -3 5 2 9 10 9
18 0 38 34 28 46 -4 5 3 0 16 -11 18 -15 22 -16 17 -3 -4 11 1 21 15 28 14 7
20 17 16 28 -5 14 -4 14 8 -1 8 -10 17 -14 20 -9 3 5 2 12 -1 16 -16 15 -10
34 11 34 34 0 54 7 76 27 22 20 26 35 9 35 -5 0 -7 -4 -4 -10 3 -5 1 -10 -4
-10 -25 0 -8 21 32 39 23 11 38 20 32 21 -5 0 5 9 23 20 32 19 40 35 23 42 -5
2 -2 10 7 18 14 13 15 12 8 -5 -6 -17 -3 -16 18 4 15 14 26 20 26 15 0 -5 5
-1 11 9 5 9 19 17 31 17 18 0 19 2 7 17 -7 10 -9 15 -5 11 5 -4 16 -2 24 5 13
10 14 9 7 -2 -6 -11 -4 -13 9 -8 10 4 26 7 37 7 10 0 19 5 19 11 0 5 -6 7 -12
3 -9 -5 -9 -2 1 9 14 18 22 22 20 10 -5 -29 19 -38 48 -20 7 4 16 0 22 -10 10
-17 10 -17 11 0 0 11 4 15 12 11 7 -5 9 -2 6 8 -4 8 0 15 7 15 8 0 13 -5 12
-10 -3 -14 36 -18 46 -4 6 8 7 6 3 -5 -3 -12 0 -18 10 -18 11 0 14 -5 10 -16
-6 -15 -4 -15 10 -3 22 18 66 20 60 2 -5 -11 -1 -11 17 -2 20 11 21 11 9 -4
-11 -13 -10 -15 8 -10 16 4 19 11 14 27 -5 16 -3 18 5 10 7 -6 13 -27 14 -47
1 -19 5 -33 8 -31 3 2 11 -7 17 -20 18 -40 73 -96 116 -118 52 -26 153 -28
211 -4 132 56 194 227 131 362 -26 55 -91 117 -143 136 -18 7 -33 15 -33 20 0
4 -27 39 -59 77 -33 38 -57 72 -53 76 4 5 2 5 -4 2 -6 -4 -19 2 -28 12 -12 14
-14 19 -4 18 7 0 22 1 33 2 17 1 18 3 5 12 -12 9 -11 10 5 6 11 -2 26 2 33 9
15 16 16 28 2 19 -16 -10 -11 1 7 16 11 10 14 10 9 2 -4 -8 -2 -13 4 -13 6 0
8 -5 4 -12 -4 -7 -3 -8 4 -4 7 4 12 13 12 20 0 16 47 49 59 42 4 -3 6 7 4 22
-3 23 -2 24 6 7 8 -17 10 -17 10 -3 1 12 6 15 19 11 15 -6 15 -5 3 10 -7 9
-18 14 -24 10 -6 -3 -7 -1 -3 6 6 9 11 9 21 1 19 -15 36 -4 28 18 -6 16 -6 16
11 0 22 -23 26 -23 26 3 0 13 -4 18 -12 13 -7 -4 -8 -3 -4 4 8 13 36 5 36 -12
0 -6 4 -5 9 4 6 8 7 18 4 24 -4 5 1 7 10 3 11 -4 22 2 33 18 17 26 77 51 96
39 8 -5 9 -2 5 9 -3 9 -2 19 3 22 6 4 10 -3 10 -15 0 -12 4 -19 10 -15 5 3 7
11 4 18 -7 19 105 15 120 -4 6 -8 16 -15 21 -16 6 -1 19 -5 30 -9 19 -8 19 -7
3 10 -10 9 -18 23 -18 29 0 8 3 9 8 1 4 -6 21 -19 39 -29 18 -10 30 -22 27
-26 -2 -4 0 -10 6 -14 5 -3 10 2 10 11 0 16 1 16 14 -1 8 -11 19 -16 30 -12
14 6 15 4 5 -16 -10 -19 -10 -20 2 -11 8 7 22 8 34 3 l20 -8 -20 0 c-17 -1
-15 -4 9 -16 15 -8 36 -15 45 -16 10 0 11 -2 4 -6 -7 -2 -13 -12 -13 -20 0
-13 3 -13 15 -3 12 10 15 9 16 -6 0 -18 1 -18 8 0 5 14 10 16 15 8 4 -7 4 -17
0 -24 -5 -7 -2 -9 9 -5 11 4 14 2 10 -8 -3 -8 -10 -12 -17 -8 -6 4 -4 -2 4
-13 22 -29 24 -30 17 -11 -4 9 -2 17 3 17 6 0 10 -5 10 -11 0 -5 6 -7 13 -3 7
5 6 0 -3 -11 -14 -17 -14 -18 9 -6 13 7 21 8 17 3 -9 -15 4 -42 20 -42 8 0 14
-7 14 -15 0 -18 16 -20 23 -2 3 6 6 8 6 2 1 -19 -177 -206 -215 -227 -84 -44
-132 -118 -141 -217 -14 -157 101 -283 260 -284 74 0 129 24 187 84 21 22 45
39 52 38 7 -1 20 -1 28 0 13 1 13 2 0 11 -12 8 -12 10 3 16 9 3 17 16 18 28 1
19 2 18 8 -4 6 -22 8 -23 14 -7 4 10 11 15 17 12 5 -3 10 1 10 9 0 9 9 16 20
16 12 0 20 7 20 18 1 16 1 16 11 0 5 -10 15 -18 21 -18 7 0 6 5 -1 14 -10 12
-7 14 21 10 25 -4 29 -2 18 5 -13 9 -13 11 1 11 8 0 19 -4 25 -10 6 -6 15 -5
24 1 13 9 12 10 -2 5 -10 -3 -18 -1 -18 4 0 16 28 12 57 -7 15 -10 24 -13 20
-6 -5 7 1 17 15 24 19 9 21 9 11 -2 -19 -19 -16 -34 4 -18 15 12 16 12 10 -4
-4 -11 -3 -16 4 -12 5 4 16 2 24 -5 9 -8 15 -8 20 0 3 6 11 7 17 4 6 -4 5 -9
-3 -15 -9 -5 -6 -8 11 -7 14 1 31 6 38 11 7 6 12 6 11 1 -7 -31 33 -59 44 -31
4 7 6 6 6 -5 1 -9 -4 -18 -10 -20 -7 -2 -4 -10 7 -18 14 -12 16 -12 10 -1 -6
9 -5 12 4 9 7 -2 14 -11 16 -20 3 -20 23 -57 24 -43 0 6 9 11 21 12 17 2 18
-1 9 -13 -10 -11 -9 -14 4 -14 9 0 16 5 16 11 0 5 5 7 10 4 6 -4 8 -10 5 -15
-3 -5 -1 -11 5 -15 5 -3 10 1 10 9 0 9 5 16 12 16 6 0 8 -3 5 -7 -4 -3 1 -16
10 -27 17 -20 17 -20 0 -7 -9 8 -21 10 -25 6 -4 -4 -1 -10 6 -12 6 -3 10 -9 7
-14 -4 -5 2 -6 11 -2 12 5 15 3 9 -6 -6 -11 -3 -11 16 -1 24 13 24 12 6 -7
-17 -20 -17 -20 6 -16 28 6 46 -15 26 -28 -8 -5 -9 -9 -3 -9 6 0 24 10 40 22
l29 22 -19 -22 c-11 -12 -15 -22 -10 -22 5 0 2 -5 -6 -11 -12 -8 -10 -9 8 -4
15 4 24 1 28 -9 3 -9 11 -13 17 -9 6 4 8 0 4 -10 -3 -9 -1 -18 6 -21 9 -3 9
-7 -1 -14 -11 -7 -11 -10 3 -16 9 -3 13 -10 10 -16 -3 -5 -1 -11 4 -11 6 -1
16 -3 21 -4 6 -1 15 -3 20 -4 6 0 10 -9 9 -18 0 -11 -3 -13 -6 -5 -2 6 -10 12
-16 12 -15 0 10 -25 26 -25 7 -1 11 -7 9 -14 -1 -7 2 -10 7 -7 5 4 11 0 14 -6
3 -10 8 -10 23 2 18 14 18 14 5 -2 -10 -14 -10 -18 -1 -18 8 0 10 -8 7 -21 -5
-19 -4 -20 12 -5 21 19 38 21 22 3 -8 -11 -6 -18 9 -32 11 -10 17 -21 15 -25
-3 -4 7 -7 20 -7 23 0 30 8 25 32 -1 5 8 1 19 -9 22 -20 26 -27 14 -25 -19 3
-30 -2 -30 -15 0 -11 5 -12 25 -3 22 10 27 8 53 -23 16 -19 28 -42 28 -50 0
-12 -3 -11 -13 3 -11 14 -15 15 -19 5 -2 -7 -3 -3 -1 8 2 13 -3 24 -12 28 -8
3 -13 10 -10 14 3 5 -1 9 -9 9 -17 0 -30 -31 -20 -47 4 -6 10 -8 15 -5 5 3 14
-3 20 -14 7 -13 16 -18 27 -14 10 4 14 2 10 -4 -5 -7 0 -9 13 -6 11 3 17 10
14 17 -4 6 19 -14 50 -45 39 -38 55 -60 51 -71 -4 -10 -13 -15 -23 -11 -14 4
-15 3 -2 -6 10 -7 19 -6 31 5 14 12 18 12 33 -5 17 -19 17 -19 -7 -17 -18 2
-24 -1 -22 -13 2 -9 4 -17 5 -18 2 -2 3 -9 4 -15 0 -7 10 -14 21 -15 19 -3 19
-3 1 5 -14 6 -16 11 -8 16 7 4 12 4 12 0 0 -4 6 0 13 10 12 17 14 17 28 -1 13
-16 13 -17 -3 -4 -12 9 -18 10 -19 2 -1 -6 -2 -17 -3 -23 -1 -7 3 -17 9 -21 6
-5 3 -7 -7 -3 -10 3 -18 0 -18 -5 0 -6 10 -9 23 -7 20 4 23 1 19 -17 -2 -14 2
-24 12 -28 19 -8 21 4 4 22 -11 10 -10 11 5 6 21 -9 22 -31 2 -42 -10 -6 -11
-13 -5 -23 9 -13 10 -13 10 0 0 8 8 0 17 -19 9 -19 19 -29 21 -22 2 6 -1 17
-6 24 -7 8 -6 18 4 31 13 18 14 15 14 -30 0 -138 102 -313 233 -398 15 -10 24
-22 21 -27 -3 -5 3 -6 12 -2 13 5 15 3 9 -7 -6 -10 -4 -12 11 -7 18 7 18 6 -1
-8 -20 -16 -20 -16 0 -13 11 2 20 0 20 -4 0 -4 10 -15 23 -23 12 -9 20 -19 18
-23 -2 -4 2 -16 10 -27 8 -10 14 -13 14 -6 0 9 5 8 16 -3 8 -9 22 -17 30 -17
29 -3 54 -7 57 -9 1 -1 17 -4 36 -7 22 -3 31 -1 26 6 -10 17 6 13 28 -7 19
-16 20 -16 8 5 -10 19 -9 21 9 18 12 -2 20 2 20 10 0 16 24 26 48 19 10 -4 13
-2 6 3 -7 5 -6 16 3 33 7 14 13 18 13 10 0 -9 3 -11 8 -4 4 6 16 14 27 19 19
8 19 8 2 12 -14 4 -10 9 20 25 188 99 303 286 303 491 0 269 -189 479 -452
504 -64 6 -70 8 -108 49 l-40 43 -46 -19 c-25 -11 -52 -20 -59 -20 -23 0 -27
-18 -9 -47 l17 -28 -28 26 -28 27 -51 -30 c-28 -17 -71 -43 -96 -60 l-45 -29
35 31 c62 55 166 119 232 140 34 12 65 23 67 25 2 2 -34 44 -80 92 -46 48
-102 110 -125 137 l-40 49 -40 -13 c-23 -8 -33 -15 -24 -18 28 -9 60 -45 60
-69 0 -13 5 -23 11 -23 6 0 8 -7 5 -16 -3 -8 -2 -12 3 -9 5 3 12 1 16 -5 3 -5
15 -10 25 -10 10 0 21 -4 24 -9 3 -4 -7 -6 -22 -4 -23 3 -24 2 -7 -6 11 -5 14
-10 6 -10 -24 -2 -175 125 -166 139 2 4 -7 5 -22 2 -25 -5 -23 -8 54 -84 l81
-79 -29 -14 c-35 -18 -49 -19 -25 -2 16 12 11 19 -55 84 l-73 71 -31 -15 c-16
-9 -51 -31 -78 -49 -54 -39 -68 -43 -41 -13 33 38 155 112 235 144 l78 32 -63
62 c-34 34 -66 58 -70 54 -4 -4 -6 -3 -4 4 1 7 -17 37 -42 67 -40 49 -46 53
-61 40 -8 -7 -21 -14 -27 -14 -7 0 -12 -4 -12 -10 0 -5 -9 -10 -21 -10 -11 0
-17 5 -14 10 3 6 -1 10 -9 10 -9 0 -16 7 -16 15 0 9 6 12 15 9 9 -4 15 0 15 9
0 12 -5 13 -35 3 -19 -7 -38 -15 -41 -19 -4 -4 28 -40 72 -81 l79 -74 -48 -23
c-26 -13 -47 -27 -47 -31 0 -4 -4 -8 -10 -8 -21 0 -9 16 25 34 20 11 34 23 33
27 -2 4 -33 39 -70 78 l-67 72 -58 -37 c-32 -20 -80 -54 -106 -76 -66 -55 -70
-42 -6 16 71 64 200 142 260 157 27 7 49 16 49 20 0 15 -252 279 -266 279 -17
0 -74 -28 -74 -36 0 -2 9 0 21 6 40 22 59 20 89 -12 16 -17 27 -35 23 -41 -4
-6 -1 -7 7 -2 10 6 12 4 7 -9 -4 -9 -3 -15 2 -12 4 3 14 0 22 -7 8 -7 12 -11
10 -10 -2 2 -10 -2 -17 -8 -8 -6 -21 -9 -29 -5 -11 4 -14 2 -9 -6 4 -7 -7 -2
-24 11 -18 12 -36 20 -41 16 -6 -3 -24 10 -42 30 -18 19 -41 35 -52 35 -14 0
0 -20 57 -84 l76 -83 -78 -47 c-73 -43 -75 -44 -37 -11 22 19 48 37 58 41 24
8 22 15 -20 58 -21 21 -38 42 -38 45 0 12 -43 61 -53 61 -9 0 -71 -45 -162
-116 -35 -27 -35 -27 5 16 59 63 186 155 243 175 l51 18 -20 26 c-12 14 -63
75 -115 134 l-95 108 157 164 c87 90 164 167 172 170 7 3 30 5 51 5 99 0 191
65 238 167 22 48 25 65 21 132 -5 87 -27 137 -84 193 -57 58 -116 82 -199 83
-147 0 -257 -93 -289 -246 -4 -20 -20 -33 -60 -53 -33 -16 -77 -51 -110 -86
-30 -33 -57 -60 -60 -60 -4 0 -21 17 -40 38 -39 43 -209 232 -382 423 -133
147 -189 214 -158 187 26 -23 40 -23 23 0 -7 9 -9 14 -5 10 13 -11 56 39 56
64 0 18 44 63 62 63 5 0 8 3 8 8 0 13 35 44 44 39 5 -3 7 7 4 21 -3 15 -2 24
3 22 16 -11 37 7 33 29 -3 16 4 26 25 39 16 9 36 17 45 17 9 0 16 5 16 10 0 6
-9 10 -20 10 -22 0 -27 15 -8 26 6 4 14 2 16 -4 2 -7 11 -12 19 -12 12 0 13 3
4 14 -9 11 -8 14 6 12 11 0 17 5 17 17 -1 9 2 17 8 17 5 0 6 5 2 12 -4 6 -3 8
4 4 6 -3 9 -16 7 -27 -4 -17 -2 -19 11 -9 11 10 12 16 3 26 -18 22 7 47 33 33
13 -7 18 -7 14 -1 -3 6 -1 14 5 17 5 4 8 13 5 20 -3 9 7 15 29 19 19 4 37 11
40 16 3 6 -1 7 -9 4 -9 -3 -16 -1 -16 5 0 6 4 11 10 11 5 0 7 7 3 16 -5 13 -7
13 -14 2 -7 -10 -9 -9 -9 5 0 14 5 17 19 12 11 -3 29 0 39 6 17 11 18 14 5 27
-7 8 -11 17 -8 20 3 3 11 0 17 -6 17 -17 33 -15 19 2 -8 10 -9 16 -1 21 6 3 8
11 5 16 -3 5 0 6 8 3 8 -3 17 2 20 10 4 9 13 13 22 10 13 -5 15 -2 9 20 -6 23
-3 26 22 27 23 0 25 2 11 8 -18 6 -18 8 2 31 l20 25 -5 -25 c-4 -24 -4 -24 9
3 7 15 17 24 22 20 4 -5 5 1 1 11 -5 15 -4 17 8 7 11 -9 15 -8 20 4 3 9 2 14
-3 11 -5 -4 -7 3 -4 14 6 23 19 26 26 8 4 -10 6 -10 6 0 1 7 5 11 9 8 5 -3 9
1 9 9 0 8 -5 11 -10 8 -5 -3 -7 0 -5 8 3 8 11 13 17 11 7 -1 10 2 7 7 -4 5 -2
12 4 16 5 3 10 0 10 -7 1 -7 7 2 15 20 8 17 19 32 25 32 6 0 9 4 6 9 -4 5 1 8
11 7 9 -2 27 6 40 17 17 16 20 23 11 34 -8 11 -7 12 6 7 10 -4 22 0 29 9 7 9
19 17 27 19 8 2 20 16 27 31 8 19 17 26 25 21 7 -4 5 2 -4 12 -17 20 -16 22
19 55 21 19 29 24 19 12 -11 -13 -14 -23 -8 -23 19 0 27 4 25 12 -2 5 4 8 12
8 13 0 21 29 17 61 -1 4 11 17 26 30 18 17 22 18 12 4 -15 -19 -15 -19 11 0
15 11 25 23 22 28 -2 4 1 7 6 7 6 0 11 -5 11 -12 0 -6 3 -8 6 -5 4 4 1 14 -7
24 -12 14 -12 16 0 8 11 -6 13 -4 8 8 -4 11 -2 14 8 10 8 -3 12 -10 8 -16 -3
-6 -1 -7 6 -3 9 6 9 11 0 22 -10 12 -8 19 11 37 12 12 19 15 15 7 -5 -9 -4
-12 1 -7 5 5 9 14 9 20 1 7 6 11 13 10 7 -2 11 3 9 10 -1 6 4 11 10 10 7 -2
12 3 10 10 -1 6 4 11 10 10 7 -2 12 3 10 10 -1 6 4 11 11 9 8 -1 11 2 8 6 -7
11 28 44 37 37 4 -3 5 -2 2 2 -2 3 7 16 20 29 14 13 25 27 25 31 0 4 22 31 48
58 26 28 69 76 96 108 26 31 53 54 59 50 6 -3 7 -1 3 5 -4 6 23 43 60 84 375
408 558 821 595 1346 14 198 8 404 -11 427 -17 21 -63 15 -203 -27 -239 -71
-519 -210 -713 -355 -124 -92 -270 -231 -407 -387 -72 -83 -193 -218 -267
-301 -75 -82 -178 -199 -230 -260 -52 -60 -200 -229 -330 -374 -129 -145 -300
-339 -379 -430 -79 -91 -205 -236 -280 -321 -75 -85 -157 -180 -182 -211 l-46
-58 -156 177 c-86 97 -209 236 -273 307 -117 131 -175 196 -449 509 -82 94
-213 241 -290 326 -231 255 -424 470 -525 586 -218 249 -384 399 -573 516
-194 121 -535 269 -700 304 -84 17 -82 17 -101 -2z m287 -275 c289 -111 486
-237 693 -444 77 -77 179 -183 225 -236 74 -84 162 -182 318 -355 25 -27 75
-83 111 -124 36 -41 99 -112 141 -159 42 -47 111 -127 155 -177 43 -50 149
-169 234 -265 85 -96 175 -197 200 -225 114 -131 342 -388 419 -474 109 -121
137 -156 89 -112 -27 25 -46 34 -74 35 -21 1 -39 -4 -42 -11 -2 -7 -16 -12
-32 -12 -16 0 -31 -6 -33 -12 -3 -7 -6 -4 -6 7 -1 18 -2 18 -17 -3 -9 -13 -26
-22 -40 -22 -14 0 -23 -4 -19 -10 3 -5 13 -7 23 -4 14 5 14 4 3 -4 -12 -9 -12
-13 -2 -26 7 -8 21 -32 32 -53 l19 -38 -26 30 c-15 17 -70 77 -123 135 -53 58
-130 143 -171 190 -85 96 -112 125 -340 370 -155 166 -278 302 -489 539 -51
58 -149 165 -216 236 -67 72 -221 238 -342 370 -121 132 -247 266 -280 298
l-59 58 3 -43 c3 -38 29 -152 48 -215 5 -16 2 -22 -12 -26 -16 -4 -16 -5 2 -6
15 -1 29 -17 47 -55 23 -47 25 -55 11 -60 -14 -6 -14 -9 3 -29 15 -17 15 -19
2 -8 -10 7 -32 11 -53 8 -19 -3 -35 -1 -35 4 0 5 7 9 16 9 9 0 12 5 8 12 -5 8
-13 4 -26 -11 -17 -22 -18 -22 -18 -3 0 11 3 22 8 25 9 5 -6 2 -37 -8 -18 -5
-22 -4 -16 5 5 9 4 11 -4 6 -6 -4 -8 -12 -5 -18 5 -8 1 -9 -10 -5 -12 5 -16 3
-13 -5 2 -7 10 -12 16 -11 6 2 11 -3 11 -10 1 -6 10 -1 20 12 22 26 28 7 6
-21 -8 -11 -20 -15 -33 -12 -11 3 -24 1 -27 -5 -4 -5 -12 -8 -19 -5 -23 8 -14
-40 15 -84 15 -24 28 -46 28 -49 0 -4 10 -18 22 -32 18 -20 15 -19 -10 4 -154
138 -345 626 -381 975 -18 165 -19 190 -9 190 5 0 46 -14 91 -31z m5624 -76
c-21 -355 -152 -747 -335 -1002 -62 -86 -241 -291 -254 -291 -9 0 26 43 64 78
15 14 25 29 21 35 -3 6 -1 7 5 3 7 -4 12 0 12 10 0 10 3 15 6 11 9 -8 57 51
50 62 -6 10 23 38 33 32 3 -2 11 14 17 35 7 22 16 38 22 37 6 -2 14 6 17 17 4
11 9 20 13 20 4 0 8 16 9 35 2 26 -1 35 -13 35 -8 0 -12 -5 -8 -11 4 -8 -1 -9
-16 -4 -16 5 -20 4 -16 -4 4 -6 4 -10 -1 -9 -9 3 -13 -5 -13 -24 0 -6 10 -3
22 8 l22 19 -20 -26 c-10 -15 -22 -22 -25 -17 -4 7 -13 6 -27 -1 -15 -8 -23
-7 -31 3 -9 11 -9 15 1 19 9 4 7 6 -4 6 -9 1 -19 9 -21 19 -4 13 -5 12 -6 -5
-1 -16 -6 -20 -23 -17 -14 3 -10 -1 10 -10 31 -15 46 -34 18 -23 -8 3 -17 3
-19 -1 -2 -4 -2 -1 -1 6 2 6 -5 12 -15 12 -11 0 -22 6 -25 13 -3 6 -3 0 -1
-15 5 -38 -19 -62 -45 -45 -11 6 -20 15 -20 20 0 4 6 5 13 0 28 -17 35 -11 33
28 -4 47 -9 54 -26 34 -10 -12 -10 -15 3 -15 10 0 15 -8 14 -20 -3 -39 -20
-18 -33 43 -2 10 3 20 11 23 8 4 13 10 10 14 -3 4 3 18 13 31 20 27 66 146 88
229 26 95 45 183 42 192 -2 5 -96 -92 -209 -214 -364 -394 -733 -799 -859
-943 -68 -77 -169 -189 -225 -250 -91 -99 -412 -459 -584 -655 -36 -41 -113
-127 -171 -190 -100 -110 -154 -172 -370 -425 -51 -60 -146 -168 -210 -240
-65 -71 -184 -209 -266 -305 -81 -96 -225 -261 -319 -365 -93 -105 -186 -209
-206 -232 l-35 -42 -82 83 c-45 45 -82 86 -82 90 0 4 42 53 93 109 50 56 200
228 332 382 321 373 435 506 680 790 492 571 577 669 715 825 81 91 204 233
275 315 155 182 216 250 410 464 83 91 177 198 210 236 33 39 82 95 110 126
27 30 117 131 200 225 338 381 438 465 720 605 111 54 278 125 304 129 2 0 1
-48 -2 -107z m-5146 -850 c13 -16 12 -17 -3 -4 -10 7 -18 15 -18 17 0 8 8 3
21 -13z m-64 -32 c-1 -16 -4 -17 -15 -9 -10 9 -11 13 0 19 17 11 17 12 15 -10z
m90 3 c-3 -3 -12 -4 -19 -1 -8 3 -5 6 6 6 11 1 17 -2 13 -5z m-202 -24 c3 -5
1 -10 -4 -10 -6 0 -11 5 -11 10 0 6 2 10 4 10 3 0 8 -4 11 -10z m50 -29 c-6
-5 -25 10 -25 20 0 5 6 4 14 -3 8 -7 12 -15 11 -17z m-75 15 c0 -3 -4 -8 -10
-11 -5 -3 -10 -1 -10 4 0 6 5 11 10 11 6 0 10 -2 10 -4z m4730 -30 c0 -2 -7
-7 -16 -10 -8 -3 -12 -2 -9 4 6 10 25 14 25 6z m-4702 -31 c-3 -3 -9 2 -12 12
-6 14 -5 15 5 6 7 -7 10 -15 7 -18z m4812 10 c0 -8 -2 -15 -4 -15 -2 0 -6 7
-10 15 -3 8 -1 15 4 15 6 0 10 -7 10 -15z m97 -12 c-14 -14 -19 -15 -29 -4
-11 10 -10 11 3 6 10 -4 20 -2 24 4 3 6 9 11 13 11 3 0 -1 -8 -11 -17z m-162
-52 c3 -5 1 -12 -5 -16 -5 -3 -10 1 -10 9 0 18 6 21 15 7z m32 2 c-4 -3 -2
-12 5 -20 8 -11 7 -12 -6 -7 -9 3 -16 9 -16 13 0 9 11 21 18 21 3 0 2 -3 -1
-7z m-74 -298 c-10 -13 -22 -25 -27 -25 -5 0 1 11 14 25 30 32 36 32 13 0z
m-33 -38 c0 -1 -24 -25 -52 -52 l-53 -50 50 53 c46 48 55 57 55 49z m-250
-271 c0 -2 -8 -10 -17 -17 -16 -13 -17 -12 -4 4 13 16 21 21 21 13z m-191
-577 c-12 -24 -26 -32 -34 -19 -4 6 -1 9 7 8 7 -2 13 4 12 13 -1 9 5 16 12 16
9 0 10 -5 3 -18z m-1969 -422 c0 -2 -10 -12 -22 -23 l-23 -19 19 23 c18 21 26
27 26 19z m-70 -81 c0 -2 -8 -10 -17 -17 -16 -13 -17 -12 -4 4 13 16 21 21 21
13z m1517 -71 c0 -11 -4 -12 -14 -4 -10 9 -13 8 -13 -1 0 -8 -2 -11 -5 -8 -3
3 -3 12 1 21 7 19 31 12 31 -8z m-1697 -138 c0 -2 -10 -12 -22 -23 l-23 -19
19 23 c18 21 26 27 26 19z m-50 -61 c0 -2 -8 -10 -17 -17 -16 -13 -17 -12 -4
4 13 16 21 21 21 13z m1549 -955 l143 -153 -48 -43 c-40 -35 -52 -41 -64 -31
-13 10 -13 9 -1 -7 13 -16 11 -22 -21 -54 l-36 -35 -43 48 c-24 26 -43 53 -43
61 1 7 -2 11 -6 8 -10 -6 -155 156 -153 173 0 7 -2 11 -5 8 -10 -11 -42 27
-42 48 1 21 1 21 19 -2 12 -13 21 -18 23 -10 8 23 30 -4 24 -28 -5 -20 -3 -24
14 -24 12 0 20 -6 19 -12 -3 -17 11 -48 21 -48 23 0 17 38 -15 91 -19 32 -32
59 -28 59 3 0 0 6 -6 14 -15 18 -3 158 13 149 6 -4 -1 9 -15 28 -74 99 -14 41
250 -240z m897 251 c81 -43 68 -187 -20 -228 -44 -22 -97 -12 -138 25 -27 24
-32 36 -36 87 -4 54 -1 63 23 92 41 49 108 58 171 24z m-3733 -21 c28 -27 32
-38 32 -85 0 -68 -25 -105 -83 -126 -37 -13 -47 -13 -84 0 -85 30 -117 134
-61 200 34 41 58 51 116 46 39 -3 55 -10 80 -35z m2492 -179 c-3 -3 -11 0 -18
7 -9 10 -8 11 6 5 10 -3 15 -9 12 -12z m-1707 -630 c272 -271 491 -496 488
-499 -3 -4 -72 59 -154 138 -200 197 -297 287 -286 267 5 -10 8 -36 6 -58 -5
-49 -23 -52 -78 -12 -63 46 -731 712 -713 712 8 0 30 20 49 45 l33 44 81 -72
c45 -39 303 -294 574 -565z m2667 606 c8 -27 39 -54 72 -64 3 0 -349 -350
-523 -520 -209 -204 -254 -246 -254 -240 0 4 9 25 21 48 16 32 23 38 30 27 7
-10 8 -7 5 11 -17 89 -17 93 -1 80 9 -8 15 -8 15 -2 0 6 -6 13 -12 15 -8 3 -6
6 5 6 9 1 17 8 17 16 0 21 -1 20 -41 -22 -18 -20 -27 -32 -19 -28 9 5 12 5 7
-1 -5 -5 -12 -9 -17 -9 -10 0 -183 -158 -344 -315 -225 -218 -110 -91 244 271
307 314 764 758 780 759 3 0 10 -15 15 -32z m99 -934 c5 -14 4 -15 -9 -4 -17
14 -19 20 -6 20 5 0 12 -7 15 -16z m126 -19 c0 -12 -78 -50 -87 -42 -2 3 11
14 29 26 18 11 29 21 23 21 -5 0 -3 4 5 9 17 11 30 5 30 -14z m-50 1 c0 -3 -4
-8 -10 -11 -5 -3 -10 -1 -10 4 0 6 5 11 10 11 6 0 10 -2 10 -4z m-2194 -268
c12 -13 25 -39 28 -58 l7 -35 -15 31 c-17 39 -52 64 -87 64 -34 0 -89 -45 -90
-73 -1 -17 -2 -18 -6 -5 -6 25 24 83 50 97 32 15 87 5 113 -21z m831 6 c12 -8
27 -23 33 -34 9 -18 7 -17 -26 5 -44 30 -49 30 -99 5 -45 -23 -56 -19 -29 11
36 40 72 44 121 13z m1657 -5 c5 -5 4 -14 -4 -24 -10 -13 -10 -15 6 -15 24 0
6 -16 -27 -24 -30 -7 -43 2 -29 19 7 9 6 16 -4 25 -12 9 -13 15 -3 25 12 14
43 11 61 -6z m-864 -234 c0 -2 -7 -5 -15 -9 -9 -3 -15 0 -15 9 0 9 6 12 15 9
8 -4 15 -7 15 -9z m-2600 -99 c0 -3 -4 -8 -10 -11 -5 -3 -10 -1 -10 4 0 6 5
11 10 11 6 0 10 -2 10 -4z m-1000 -40 c0 -3 -4 -8 -10 -11 -5 -3 -10 -1 -10 4
0 6 5 11 10 11 6 0 10 -2 10 -4z m131 -93 c13 -16 12 -17 -3 -4 -17 13 -22 21
-14 21 2 0 10 -8 17 -17z m-196 -68 c23 -13 52 -33 65 -44 21 -17 17 -17 -22
4 l-46 26 -38 -26 c-47 -32 -60 -23 -15 12 24 19 29 28 20 34 -9 5 -26 -1 -46
-17 -27 -20 -40 -24 -69 -18 l-36 7 32 15 c18 9 29 20 26 28 -3 8 1 11 12 8 9
-2 5 2 -11 9 -15 7 -25 16 -21 20 8 7 95 -26 149 -58z m3940 37 c-8 -8 -25 10
-19 20 4 6 9 5 15 -3 4 -7 6 -15 4 -17z m46 11 c13 -16 12 -17 -3 -4 -10 7
-18 15 -18 17 0 8 8 3 21 -13z m-17 -19 c3 -8 2 -12 -4 -9 -6 3 -10 10 -10 16
0 14 7 11 14 -7z m1019 -51 c-7 -2 -19 -2 -25 0 -7 3 -2 5 12 5 14 0 19 -2 13
-5z m-4270 -33 c-3 -11 -10 -23 -16 -27 -5 -3 -8 -2 -5 3 3 5 8 17 11 27 9 24
16 22 10 -3z m3386 -24 c9 -10 7 -17 -6 -27 -16 -12 -17 -12 -6 2 10 12 10 18
1 27 -7 7 -9 12 -6 12 3 0 11 -6 17 -14z m-3429 -60 c0 -8 -7 -16 -15 -20 -13
-4 -14 -2 -5 14 13 23 20 26 20 6z m-787 -90 c101 -49 199 -185 196 -274 0
-23 -2 -20 -13 15 -8 23 -24 58 -37 79 l-23 38 -15 -35 c-8 -19 -15 -59 -14
-89 1 -39 -1 -47 -7 -30 -23 79 -92 152 -162 171 -63 17 -149 6 -203 -26 -61
-35 -94 -87 -104 -166 l-9 -64 -1 70 c0 39 -4 88 -9 111 -5 22 -5 50 -1 62 5
12 7 22 4 22 -10 0 -51 -70 -72 -124 l-24 -61 6 45 c8 66 59 163 106 204 77
66 140 86 250 82 59 -2 90 -9 132 -30z m5274 19 c102 -30 187 -119 223 -234
11 -35 20 -72 20 -83 0 -33 -17 -10 -24 33 -7 44 -39 113 -57 125 -8 4 -8 1
-2 -12 14 -29 10 -44 -17 -57 -19 -10 -25 -20 -23 -43 2 -28 1 -28 -19 11 -48
94 -113 130 -226 123 -54 -3 -78 -9 -111 -31 -51 -34 -90 -92 -107 -160 l-14
-52 3 57 c3 41 0 59 -10 62 -17 7 -18 97 0 115 10 11 9 12 -1 7 -19 -11 -64
-86 -78 -131 -11 -34 -13 -36 -13 -13 -1 43 36 131 75 176 37 44 101 86 162
108 50 18 157 17 219 -1z m-960 -11 c2 -6 -3 -11 -10 -11 -8 0 -14 6 -14 14 0
15 19 12 24 -3z m-3786 -237 c-10 -9 -11 -8 -5 6 3 10 9 15 12 12 3 -3 0 -11
-7 -18z m4080 -34 l24 -28 -30 25 c-16 14 -32 26 -34 28 -2 1 0 2 6 2 5 0 20
-12 34 -27z m689 -583 c0 -5 -2 -10 -4 -10 -3 0 -8 5 -11 10 -3 6 -1 10 4 10
6 0 11 -4 11 -10z"/>
<path d="M2840 7479 c0 -5 5 -7 10 -4 6 3 10 8 10 11 0 2 -4 4 -10 4 -5 0 -10
-5 -10 -11z"/>
<path d="M2705 7470 c3 -5 8 -10 11 -10 2 0 4 5 4 10 0 6 -5 10 -11 10 -5 0
-7 -4 -4 -10z"/>
<path d="M2781 7462 c-1 -7 -7 -10 -13 -7 -7 4 -5 0 5 -8 9 -8 17 -17 17 -20
0 -4 -8 -4 -17 -1 -15 5 -16 4 -3 -5 21 -15 32 1 21 30 -5 13 -10 18 -10 11z"/>
<path d="M2730 7440 c-9 -6 -10 -10 -3 -10 6 0 15 5 18 10 8 12 4 12 -15 0z"/>
<path d="M2830 7425 c-11 -13 -10 -14 4 -9 9 3 16 10 16 15 0 13 -6 11 -20 -6z"/>
<path d="M2865 7385 l-17 -30 21 25 c18 21 22 23 31 10 6 -10 10 -11 10 -3 0
7 7 10 15 7 10 -4 13 -2 10 7 -10 26 -53 16 -70 -16z"/>
<path d="M2696 7385 c-9 -26 -7 -32 5 -12 6 10 9 21 6 23 -2 3 -7 -2 -11 -11z"/>
<path d="M2746 7385 c4 -8 8 -15 10 -15 2 0 4 7 4 15 0 8 -4 15 -10 15 -5 0
-7 -7 -4 -15z"/>
<path d="M2796 7392 c-3 -5 5 -14 18 -20 20 -9 24 -8 22 6 -3 19 -31 28 -40
14z"/>
<path d="M2947 7378 c-10 -10 -23 -16 -30 -13 -7 4 -3 0 8 -9 11 -8 26 -20 33
-26 8 -8 12 -8 12 0 0 6 -7 13 -15 16 -11 5 -11 9 -2 19 9 10 14 9 25 -4 11
-13 11 -12 1 9 -6 14 -12 25 -13 26 0 0 -9 -8 -19 -18z"/>
<path d="M2720 7360 c0 -21 15 -27 25 -10 3 6 1 10 -5 10 -6 0 -8 5 -5 10 3 6
1 10 -4 10 -6 0 -11 -9 -11 -20z"/>
<path d="M2757 7347 c-2 -6 -5 -16 -5 -21 0 -5 -6 -13 -14 -17 -10 -7 -10 -9
0 -9 7 0 10 -4 7 -10 -3 -5 1 -20 9 -32 18 -25 21 -17 6 12 -7 13 -7 21 0 25
6 4 8 15 5 26 -4 11 -2 19 6 19 8 0 9 -10 5 -30 -3 -19 -2 -29 4 -25 6 3 10 1
10 -6 0 -9 3 -10 10 -3 7 7 5 21 -5 42 -19 37 -31 47 -38 29z"/>
<path d="M2805 7350 c-3 -5 -1 -10 4 -10 6 0 11 5 11 10 0 6 -2 10 -4 10 -3 0
-8 -4 -11 -10z"/>
<path d="M4895 5680 c-3 -5 1 -10 10 -10 9 0 13 5 10 10 -3 6 -8 10 -10 10 -2
0 -7 -4 -10 -10z"/>
<path d="M8039 8083 l-24 -28 28 24 c15 14 27 26 27 28 0 8 -8 1 -31 -24z"/>
<path d="M7908 7583 c7 -3 16 -2 19 1 4 3 -2 6 -13 5 -11 0 -14 -3 -6 -6z"/>
<path d="M7798 7363 c7 -3 16 -2 19 1 4 3 -2 6 -13 5 -11 0 -14 -3 -6 -6z"/>
<path d="M7827 7353 c-13 -12 -7 -18 19 -19 14 -1 24 -1 22 0 -2 1 -10 7 -19
14 -9 6 -19 9 -22 5z"/>
<path d="M7750 7330 c0 -5 5 -10 11 -10 5 0 7 5 4 10 -3 6 -8 10 -11 10 -2 0
-4 -4 -4 -10z"/>
<path d="M7792 7314 c-5 -8 -18 -16 -30 -17 -12 -1 -22 -5 -22 -10 0 -5 7 -7
15 -3 8 3 15 1 15 -4 0 -6 -4 -11 -10 -11 -5 -1 -14 -2 -20 -3 -5 0 -10 -4
-10 -8 0 -5 0 -11 0 -14 0 -4 8 0 18 7 16 13 16 13 0 -7 -24 -27 -23 -37 2
-24 11 6 18 15 15 19 -7 12 34 61 58 70 20 8 20 8 -1 13 -14 4 -25 1 -30 -8z"/>
<path d="M7818 7293 c6 -2 18 -2 25 0 6 3 1 5 -13 5 -14 0 -19 -2 -12 -5z"/>
<path d="M7745 7080 c-3 -5 -1 -10 4 -10 6 0 11 5 11 10 0 6 -2 10 -4 10 -3 0
-8 -4 -11 -10z"/>
<path d="M6196 4081 c-3 -4 2 -17 10 -27 9 -10 13 -14 10 -7 -4 6 -2 14 4 18
11 7 4 25 -10 25 -5 0 -11 -4 -14 -9z"/>
<path d="M6265 4009 c-4 -6 -5 -12 -2 -15 2 -3 7 2 10 11 7 17 1 20 -8 4z"/>
<path d="M6374 3668 l-19 -23 23 19 c12 11 22 21 22 23 0 8 -8 2 -26 -19z"/>
<path d="M7110 6005 c-8 -9 -8 -15 -2 -15 12 0 26 19 19 26 -2 2 -10 -2 -17
-11z"/>
<path d="M6926 5792 c-3 -5 1 -9 9 -9 8 0 12 4 9 9 -3 4 -7 8 -9 8 -2 0 -6 -4
-9 -8z"/>
<path d="M6895 5729 c-11 -16 -1 -19 13 -3 7 8 8 14 3 14 -5 0 -13 -5 -16 -11z"/>
<path d="M6720 5561 c0 -5 9 -7 20 -4 11 3 20 7 20 9 0 2 -9 4 -20 4 -11 0
-20 -4 -20 -9z"/>
<path d="M6606 5398 c3 -5 10 -6 15 -3 13 9 11 12 -6 12 -8 0 -12 -4 -9 -9z"/>
<path d="M6177 4953 c-4 -3 -7 -11 -7 -17 0 -6 5 -5 12 2 6 6 9 14 7 17 -3 3
-9 2 -12 -2z"/>
<path d="M5366 3699 c4 -7 0 -9 -13 -5 -13 4 -25 0 -34 -11 -12 -15 -12 -16 1
-7 8 5 24 9 34 9 11 0 21 6 23 13 3 6 0 12 -7 12 -6 0 -8 -5 -4 -11z"/>
<path d="M7324 3133 c15 -4 16 -7 5 -14 -19 -11 2 -32 23 -24 27 10 14 38 -18
41 -16 1 -20 0 -10 -3z"/>
<path d="M4520 2899 c0 -5 5 -7 10 -4 6 3 10 8 10 11 0 2 -4 4 -10 4 -5 0 -10
-5 -10 -11z"/>
<path d="M4024 2739 c-3 -6 0 -15 7 -20 14 -8 36 17 25 28 -3 4 -6 1 -6 -5 0
-7 -5 -12 -11 -12 -5 0 -7 5 -4 10 3 6 4 10 1 10 -3 0 -8 -5 -12 -11z"/>
<path d="M3908 2643 c7 -3 16 -2 19 1 4 3 -2 6 -13 5 -11 0 -14 -3 -6 -6z"/>
<path d="M3660 2389 c0 -5 5 -7 10 -4 6 3 10 8 10 11 0 2 -4 4 -10 4 -5 0 -10
-5 -10 -11z"/>
<path d="M7030 2321 c0 -5 5 -13 10 -16 6 -3 10 -2 10 4 0 5 -4 13 -10 16 -5
3 -10 2 -10 -4z"/>
<path d="M7176 2201 c-4 -6 -2 -11 3 -11 6 0 11 -7 11 -15 0 -8 5 -15 10 -15
6 0 10 5 10 10 0 6 0 12 0 15 0 3 -3 5 -6 4 -4 0 -10 5 -14 11 -5 9 -9 9 -14
1z"/>
<path d="M3435 2170 c-3 -5 -1 -10 4 -10 6 0 11 5 11 10 0 6 -2 10 -4 10 -3 0
-8 -4 -11 -10z"/>
<path d="M7224 2159 c-10 -16 20 -41 40 -33 16 6 15 8 -3 25 -23 22 -27 23
-37 8z m31 -19 c3 -5 2 -10 -4 -10 -5 0 -13 5 -16 10 -3 6 -2 10 4 10 5 0 13
-4 16 -10z"/>
<path d="M7770 1390 c0 -5 5 -10 11 -10 5 0 7 5 4 10 -3 6 -8 10 -11 10 -2 0
-4 -4 -4 -10z"/>
<path d="M2601 1331 c-8 -5 -9 -11 -3 -15 5 -3 12 1 16 9 6 17 6 18 -13 6z"/>
</g>
</svg>
