<svg width="41" height="41" viewBox="0 0 41 41" fill="none" xmlns="http://www.w3.org/2000/svg">
<rect x="0.19043" y="0.524902" width="40" height="40" rx="20" fill="#0066FF"/>
<g clip-path="url(#clip0_623_2473)">
<path d="M20.1904 11.3008C23.1963 11.3008 23.5522 11.314 24.7344 11.3667C25.833 11.415 26.4263 11.5996 26.8218 11.7534C27.3447 11.9556 27.7227 12.2017 28.1138 12.5928C28.5093 12.9883 28.751 13.3618 28.9531 13.8848C29.1069 14.2803 29.2915 14.8779 29.3398 15.9722C29.3926 17.1587 29.4058 17.5146 29.4058 20.5161C29.4058 23.522 29.3926 23.8779 29.3398 25.0601C29.2915 26.1587 29.1069 26.752 28.9531 27.1475C28.751 27.6704 28.5049 28.0483 28.1138 28.4395C27.7183 28.835 27.3447 29.0767 26.8218 29.2788C26.4263 29.4326 25.8286 29.6172 24.7344 29.6655C23.5479 29.7183 23.1919 29.7314 20.1904 29.7314C17.1846 29.7314 16.8286 29.7183 15.6465 29.6655C14.5479 29.6172 13.9546 29.4326 13.5591 29.2788C13.0361 29.0767 12.6582 28.8306 12.2671 28.4395C11.8716 28.0439 11.6299 27.6704 11.4277 27.1475C11.2739 26.752 11.0894 26.1543 11.041 25.0601C10.9883 23.8735 10.9751 23.5176 10.9751 20.5161C10.9751 17.5103 10.9883 17.1543 11.041 15.9722C11.0894 14.8735 11.2739 14.2803 11.4277 13.8848C11.6299 13.3618 11.876 12.9839 12.2671 12.5928C12.6626 12.1973 13.0361 11.9556 13.5591 11.7534C13.9546 11.5996 14.5522 11.415 15.6465 11.3667C16.8286 11.314 17.1846 11.3008 20.1904 11.3008ZM20.1904 9.2749C17.1362 9.2749 16.7539 9.28809 15.5542 9.34082C14.3589 9.39355 13.5371 9.58691 12.8252 9.86377C12.0825 10.1538 11.4541 10.5361 10.8301 11.1646C10.2017 11.7886 9.81934 12.417 9.5293 13.1553C9.25244 13.8716 9.05908 14.689 9.00635 15.8843C8.95361 17.0884 8.94043 17.4707 8.94043 20.5249C8.94043 23.5791 8.95361 23.9614 9.00635 25.1611C9.05908 26.3564 9.25244 27.1782 9.5293 27.8901C9.81934 28.6328 10.2017 29.2612 10.8301 29.8853C11.4541 30.5093 12.0825 30.896 12.8208 31.1816C13.5371 31.4585 14.3545 31.6519 15.5498 31.7046C16.7495 31.7573 17.1318 31.7705 20.186 31.7705C23.2402 31.7705 23.6226 31.7573 24.8223 31.7046C26.0176 31.6519 26.8394 31.4585 27.5513 31.1816C28.2896 30.896 28.918 30.5093 29.542 29.8853C30.166 29.2612 30.5527 28.6328 30.8384 27.8945C31.1152 27.1782 31.3086 26.3608 31.3613 25.1655C31.4141 23.9658 31.4272 23.5835 31.4272 20.5293C31.4272 17.4751 31.4141 17.0928 31.3613 15.8931C31.3086 14.6978 31.1152 13.876 30.8384 13.1641C30.5615 12.417 30.1792 11.7886 29.5508 11.1646C28.9268 10.5405 28.2983 10.1538 27.5601 9.86816C26.8438 9.59131 26.0264 9.39795 24.8311 9.34521C23.627 9.28809 23.2446 9.2749 20.1904 9.2749Z" fill="white"/>
<path d="M20.1899 14.7461C16.9995 14.7461 14.4111 17.3345 14.4111 20.5249C14.4111 23.7153 16.9995 26.3037 20.1899 26.3037C23.3804 26.3037 25.9688 23.7153 25.9688 20.5249C25.9688 17.3345 23.3804 14.7461 20.1899 14.7461ZM20.1899 24.2734C18.1201 24.2734 16.4414 22.5947 16.4414 20.5249C16.4414 18.4551 18.1201 16.7764 20.1899 16.7764C22.2598 16.7764 23.9385 18.4551 23.9385 20.5249C23.9385 22.5947 22.2598 24.2734 20.1899 24.2734Z" fill="white"/>
<path d="M27.5469 14.5171C27.5469 15.2642 26.9404 15.8662 26.1978 15.8662C25.4507 15.8662 24.8486 15.2598 24.8486 14.5171C24.8486 13.77 25.4551 13.168 26.1978 13.168C26.9404 13.168 27.5469 13.7744 27.5469 14.5171Z" fill="white"/>
</g>
<defs>
<clipPath id="clip0_623_2473">
<rect width="22.5" height="22.5" fill="white" transform="translate(8.94043 9.2749)"/>
</clipPath>
</defs>
</svg>
