<svg width="154" height="41" viewBox="0 0 154 41" fill="none" xmlns="http://www.w3.org/2000/svg">
<rect y="0.101074" width="154" height="40" rx="20" fill="white"/>
<path d="M61.7004 15.6833C61.1206 15.2847 60.364 15.085 59.4306 15.085H55.817C55.5308 15.085 55.3728 15.2281 55.3427 15.5139L53.8747 24.7285C53.8595 24.819 53.8821 24.9018 53.9424 24.9771C54.0024 25.0525 54.0779 25.09 54.1683 25.09H55.8847C56.1858 25.09 56.3512 24.9472 56.3816 24.6609L56.7881 22.1767C56.8029 22.0563 56.8559 21.9584 56.9462 21.883C57.0365 21.8078 57.1495 21.7585 57.285 21.736C57.4205 21.7136 57.5483 21.7024 57.6689 21.7024C57.7893 21.7024 57.9322 21.71 58.0981 21.725C58.2636 21.74 58.3691 21.7473 58.4143 21.7473C59.7091 21.7473 60.7254 21.3825 61.4633 20.652C62.2009 19.9219 62.5701 18.9093 62.5701 17.6143C62.5701 16.726 62.28 16.0823 61.7004 15.6831V15.6833ZM59.8372 18.4502C59.7617 18.9773 59.5662 19.3234 59.25 19.4891C58.9338 19.655 58.4821 19.7374 57.895 19.7374L57.1496 19.76L57.5336 17.3434C57.5636 17.1779 57.6614 17.0951 57.8272 17.0951H58.2564C58.8584 17.0951 59.2953 17.1819 59.5663 17.3547C59.8372 17.528 59.9276 17.8933 59.8372 18.4502Z" fill="#003087"/>
<path d="M99.8354 15.085H98.1643C97.9982 15.085 97.9005 15.1678 97.8707 15.3334L96.4025 24.7289L96.3799 24.774C96.3799 24.8497 96.41 24.9209 96.4704 24.9887C96.5303 25.0562 96.6059 25.0902 96.6962 25.0902H98.187C98.4726 25.0902 98.6308 24.9474 98.6613 24.6612L100.129 15.4238V15.4013C100.129 15.1906 100.031 15.0852 99.8354 15.0852V15.085Z" fill="#009CDE"/>
<path d="M79.6447 18.7214C79.6447 18.6463 79.6145 18.5747 79.5546 18.507C79.4942 18.4393 79.4264 18.4053 79.3513 18.4053H77.6122C77.4463 18.4053 77.3108 18.4809 77.2056 18.6311L74.8116 22.1546L73.8179 18.7667C73.7423 18.5259 73.5768 18.4053 73.321 18.4053H71.627C71.5515 18.4053 71.4837 18.4392 71.4239 18.507C71.3635 18.5747 71.3335 18.6464 71.3335 18.7214C71.3335 18.7518 71.4803 19.1958 71.7739 20.054C72.0674 20.9124 72.3836 21.8384 72.7225 22.8322C73.0613 23.8259 73.238 24.3531 73.2532 24.4129C72.0184 26.0994 71.4013 27.0029 71.4013 27.1232C71.4013 27.3191 71.4991 27.4168 71.6949 27.4168H73.4339C73.5995 27.4168 73.735 27.3417 73.8405 27.191L79.5998 18.8794C79.6297 18.8495 79.6447 18.797 79.6447 18.7214V18.7214Z" fill="#003087"/>
<path d="M95.8383 18.4052H94.1217C93.9108 18.4052 93.7832 18.6537 93.738 19.1506C93.3461 18.5486 92.6313 18.2471 91.5922 18.2471C90.5081 18.2471 89.5858 18.6537 88.8256 19.4668C88.0651 20.2799 87.6851 21.2362 87.6851 22.3352C87.6851 23.2237 87.9447 23.9313 88.4641 24.4581C88.9835 24.9854 89.6799 25.2486 90.5535 25.2486C90.99 25.2486 91.4341 25.1581 91.8858 24.9776C92.3376 24.7969 92.6911 24.5561 92.9475 24.2549C92.9475 24.27 92.9322 24.3376 92.9023 24.4579C92.872 24.5786 92.8571 24.6692 92.8571 24.729C92.8571 24.9702 92.9547 25.0903 93.1508 25.0903H94.7093C94.995 25.0903 95.1608 24.9475 95.2059 24.6612L96.1319 18.7665C96.1468 18.6761 96.1243 18.5934 96.0642 18.518C96.0037 18.443 95.9286 18.4052 95.8383 18.4052ZM92.8909 22.8546C92.507 23.231 92.044 23.4192 91.502 23.4192C91.0651 23.4192 90.7116 23.2989 90.4405 23.0579C90.1693 22.8174 90.0338 22.4861 90.0338 22.0641C90.0338 21.5074 90.222 21.0366 90.5986 20.6526C90.9745 20.2686 91.4417 20.0767 91.9988 20.0767C92.4201 20.0767 92.7702 20.2009 93.049 20.4492C93.3273 20.6977 93.467 21.0404 93.467 21.477C93.4669 22.019 93.2748 22.4783 92.8909 22.8546Z" fill="#009CDE"/>
<path d="M70.1817 18.4052H68.4652C68.2541 18.4052 68.1264 18.6537 68.0812 19.1506C67.6746 18.5486 66.9594 18.2471 65.9355 18.2471C64.8514 18.2471 63.9291 18.6537 63.1688 19.4668C62.4083 20.2799 62.0283 21.2362 62.0283 22.3352C62.0283 23.2237 62.2881 23.9313 62.8076 24.4581C63.327 24.9854 64.0233 25.2486 64.8967 25.2486C65.318 25.2486 65.755 25.1581 66.2066 24.9776C66.6583 24.7969 67.0197 24.5561 67.2907 24.2549C67.2303 24.4354 67.2003 24.5936 67.2003 24.729C67.2003 24.9702 67.2981 25.0903 67.4939 25.0903H69.0523C69.3381 25.0903 69.504 24.9475 69.5492 24.6612L70.4751 18.7665C70.49 18.6761 70.4674 18.5934 70.4074 18.518C70.3471 18.443 70.272 18.4052 70.1817 18.4052ZM67.2343 22.8658C66.8502 23.2352 66.3795 23.4192 65.8227 23.4192C65.3858 23.4192 65.0358 23.2989 64.7725 23.0579C64.5088 22.8174 64.3772 22.4861 64.3772 22.0641C64.3772 21.5074 64.5653 21.0366 64.9419 20.6526C65.318 20.2686 65.7848 20.0767 66.3422 20.0767C66.7635 20.0767 67.1136 20.2009 67.3924 20.4493C67.6708 20.6978 67.8102 21.0404 67.8102 21.4771C67.8102 22.0341 67.6182 22.4973 67.2343 22.8658Z" fill="#003087"/>
<path d="M87.3572 15.6833C86.7775 15.2847 86.021 15.085 85.0875 15.085H81.4964C81.1951 15.085 81.0294 15.2281 80.9995 15.5139L79.5315 24.7285C79.5162 24.8191 79.5388 24.9019 79.5992 24.9771C79.6589 25.0525 79.7346 25.09 79.825 25.09H81.6769C81.8576 25.09 81.9779 24.9922 82.0383 24.7965L82.4449 22.1767C82.4598 22.0563 82.5125 21.9584 82.603 21.883C82.6933 21.8078 82.8061 21.7586 82.9418 21.736C83.0772 21.7136 83.205 21.7024 83.3258 21.7024C83.4461 21.7024 83.5891 21.71 83.7547 21.725C83.9203 21.74 84.0261 21.7473 84.0709 21.7473C85.366 21.7473 86.3821 21.3825 87.12 20.652C87.8578 19.9219 88.2267 18.9093 88.2267 17.6143C88.2268 16.726 87.9368 16.0824 87.3572 15.6831V15.6833ZM85.0423 19.3987C84.711 19.6245 84.2141 19.7374 83.5517 19.7374L82.8289 19.76L83.2129 17.3434C83.2427 17.1779 83.3405 17.0951 83.5064 17.0951H83.9128C84.244 17.0951 84.5075 17.1101 84.7035 17.1402C84.899 17.1705 85.0875 17.2643 85.2682 17.4224C85.4489 17.5806 85.5392 17.8103 85.5392 18.1114C85.5392 18.7437 85.3734 19.1728 85.0423 19.3987Z" fill="#009CDE"/>
</svg>
