<svg width="46" height="19" viewBox="0 0 46 19" fill="none" xmlns="http://www.w3.org/2000/svg">
<g clip-path="url(#clip0_949_1063)">
<path d="M18.5829 5.13974C16.1044 5.13974 14.2928 6.98166 14.2728 9.51849C14.2648 10.1229 14.3863 10.7222 14.6293 11.2767C14.8724 11.8312 15.2314 12.3284 15.6827 12.7353C16.5084 13.4843 17.5885 13.8981 18.7082 13.8943C18.8467 13.8943 18.9871 13.8876 19.125 13.875C20.1825 13.7784 20.9629 13.3785 21.7361 12.5397C21.776 12.4965 21.8064 12.4457 21.8254 12.3903C21.8444 12.335 21.8517 12.2763 21.8468 12.218C21.8422 12.1607 21.8256 12.1049 21.798 12.0542C21.7704 12.0035 21.7324 11.9592 21.6864 11.9239L21.1272 11.4893C21.0457 11.4247 20.9427 11.3925 20.8385 11.3991C20.7342 11.4057 20.6362 11.4506 20.5637 11.525C20.0391 12.0703 19.3912 12.3354 18.5829 12.3354C18.0101 12.3354 17.4241 12.1195 16.9337 11.7279C16.4822 11.3671 16.1537 10.8905 16.0278 10.4206V10.4114H22.1461C22.3724 10.4114 22.6336 10.2366 22.6502 10.013C22.6624 9.85799 22.6687 9.74785 22.6687 9.68558C22.6668 6.96763 21.0259 5.13974 18.5829 5.13974ZM16.0181 8.85203V8.84429C16.0303 8.33434 16.3028 7.80505 16.7655 7.39163C17.264 6.94684 17.9115 6.7014 18.5824 6.70298C18.9154 6.70382 19.2445 6.77336 19.5489 6.90717C19.8532 7.04094 20.1261 7.23605 20.3502 7.48C20.7323 7.88615 20.9776 8.40919 20.9898 8.84429V8.85203H16.0181Z" fill="black"/>
<path d="M41.8864 5.18806H38.3134H37.5578C37.3343 5.18522 37.1188 5.27042 36.9587 5.42491C36.7986 5.57941 36.7071 5.79057 36.7041 6.01196V13.2994C36.7048 13.3528 36.7161 13.4056 36.7374 13.4548C36.7587 13.5039 36.7896 13.5484 36.8283 13.5857C36.8669 13.623 36.9126 13.6524 36.9627 13.6722C37.0129 13.692 37.0664 13.7019 37.1205 13.7012H37.8975C38.0064 13.7024 38.1114 13.6609 38.1894 13.5855C38.2674 13.5102 38.312 13.4073 38.3134 13.2994V10.7181H41.8864C42.6163 10.7173 43.3161 10.4297 43.8322 9.91849C44.3483 9.40723 44.6386 8.71402 44.6393 7.99097V7.91519C44.6386 7.19214 44.3483 6.49893 43.8322 5.98768C43.3161 5.47639 42.6163 5.18883 41.8864 5.18806ZM43.0729 7.98906C43.0726 8.31346 42.9423 8.62444 42.7107 8.8538C42.4791 9.08312 42.1651 9.21208 41.8376 9.21232H38.2646V6.69189H41.8376C42.1651 6.69217 42.4791 6.82109 42.7107 7.05045C42.9423 7.27977 43.0726 7.59079 43.0729 7.91519V7.98906Z" fill="black"/>
<path d="M7.41319 1.26379C7.39804 1.26379 7.38294 1.26379 7.36736 1.26379C7.06892 1.2756 6.78751 1.40434 6.5849 1.62169C6.3823 1.83905 6.27516 2.12722 6.28702 2.42283C6.29742 2.71108 6.42055 2.98403 6.63045 3.18394C6.84039 3.38385 7.12053 3.49503 7.41173 3.49397H7.45756C7.75168 3.48185 8.02937 3.3561 8.23108 3.14366C8.43279 2.93121 8.54247 2.64897 8.53668 2.35738C8.53089 2.06579 8.41002 1.78805 8.20003 1.58364C7.99004 1.37924 7.70759 1.26442 7.41319 1.26379Z" fill="black"/>
<path d="M5.07444 5.25354H4.57523C3.7567 5.25354 3.08344 5.49501 2.67881 5.92965L2.46235 6.16386V5.59352C2.46248 5.55152 2.45424 5.50991 2.4381 5.47107C2.42197 5.43222 2.39825 5.39692 2.36831 5.36718C2.33838 5.33743 2.30281 5.31383 2.26365 5.29773C2.22449 5.28163 2.18251 5.27334 2.14011 5.27334H1.20408C1.16168 5.27334 1.1197 5.28163 1.08054 5.29773C1.04138 5.31383 1.00581 5.33743 0.975876 5.36718C0.945939 5.39692 0.922223 5.43222 0.906086 5.47107C0.88995 5.50991 0.881709 5.55152 0.881837 5.59352V13.417C0.881837 13.5129 0.920308 13.6049 0.988787 13.6728C1.05726 13.7406 1.15014 13.7787 1.24698 13.7787H2.0972C2.19401 13.7786 2.28681 13.7404 2.35526 13.6726C2.42371 13.6048 2.46222 13.5129 2.46235 13.417V8.76781L2.47161 8.68671C2.52841 8.17341 2.77444 7.69898 3.16253 7.35426C3.55062 7.00954 4.05349 6.81886 4.57474 6.81872H5.07444C5.1684 6.81858 5.25847 6.78157 5.32491 6.71576C5.39136 6.64995 5.42874 6.56069 5.42886 6.46761V5.60463C5.42886 5.51152 5.39152 5.42221 5.32506 5.35637C5.25859 5.29053 5.16844 5.25354 5.07444 5.25354Z" fill="black"/>
<path d="M7.84134 5.27356H6.98529C6.78523 5.27356 6.62305 5.43421 6.62305 5.63237V13.4167C6.62305 13.6149 6.78523 13.7756 6.98529 13.7756H7.84134C8.0414 13.7756 8.20359 13.6149 8.20359 13.4167V5.63237C8.20359 5.43421 8.0414 5.27356 7.84134 5.27356Z" fill="black"/>
<path d="M12.0583 8.93123L11.8934 8.80567C11.2265 8.29954 10.9545 8.05955 10.9545 7.71861C10.9545 6.90099 11.9617 6.81262 12.3946 6.81262H12.9831C13.0707 6.81248 13.1547 6.77795 13.2166 6.71656C13.2786 6.65518 13.3135 6.57198 13.3136 6.48519V5.57486C13.3136 5.48797 13.2788 5.40464 13.2168 5.34316C13.1548 5.28168 13.0708 5.24707 12.9831 5.24695H12.3946C10.5879 5.24695 9.37207 6.24036 9.37207 7.71861C9.37207 8.86603 10.2008 9.49432 10.9321 10.0487L11.0842 10.1641C11.7667 10.6978 12.0485 10.9851 12.0485 11.3777C12.0485 12.1504 11.0447 12.2103 10.7366 12.2103H9.86982C9.78217 12.2105 9.69818 12.245 9.63622 12.3064C9.57425 12.3678 9.53938 12.451 9.53929 12.5377V13.4481C9.53938 13.5349 9.57425 13.6181 9.63622 13.6795C9.69818 13.7408 9.78217 13.7754 9.86982 13.7755H10.7371C12.1304 13.7755 13.6295 13.0255 13.6295 11.3777C13.6295 10.1632 12.7213 9.45088 12.0583 8.93123Z" fill="black"/>
<path d="M39.0806 4.04828H39.0693V4.12495H39.0806V4.04828Z" fill="black"/>
<path d="M35.0723 5.21259H34.3776C34.2609 5.21246 34.1489 5.2581 34.066 5.33954C33.9832 5.42098 33.9362 5.5316 33.9355 5.64721V8.15846C33.9365 8.72904 33.8215 9.29399 33.597 9.81951C33.3726 10.345 33.0435 10.8203 32.6294 11.2168C32.2165 11.6183 31.7266 11.9336 31.1886 12.1444C30.6506 12.3552 30.0755 12.4571 29.4971 12.444C27.1429 12.4001 25.2275 10.4447 25.2275 8.08505V5.64819C25.2267 5.53257 25.1798 5.42195 25.097 5.3405C25.0141 5.25906 24.9021 5.21342 24.7853 5.21355H24.0906C23.9739 5.21342 23.8619 5.25906 23.779 5.3405C23.6961 5.42195 23.6492 5.53257 23.6484 5.64819V8.07153C23.6484 11.2917 26.2683 13.9512 29.4889 13.9995H29.582C31.1378 14.0031 32.6324 13.3993 33.7419 12.3189C34.3042 11.7787 34.7509 11.1319 35.0554 10.417C35.3599 9.70219 35.5161 8.93389 35.5145 8.15799V5.64675C35.5136 5.5312 35.4666 5.42071 35.3837 5.33937C35.3009 5.25803 35.189 5.21246 35.0723 5.21259Z" fill="black"/>
</g>
<defs>
<clipPath id="clip0_949_1063">
<rect width="45" height="18" fill="white" transform="translate(0.255859 0.5)"/>
</clipPath>
</defs>
</svg>
