<svg width="14" height="15" viewBox="0 0 14 15" fill="none" xmlns="http://www.w3.org/2000/svg">
<path d="M6.34783 4.92859L8.04349 7.07144C5.30436 8.88463 2 8.88463 2 4.92859C2 10.8627 6.13044 12.0715 10.5652 10.3132L12 12.0714V4.92859H6.34783Z" fill="#0066FF"/>
<path fill-rule="evenodd" clip-rule="evenodd" d="M2 4.67859C2.13807 4.67859 2.25 4.79052 2.25 4.92859C2.25 5.88483 2.44986 6.57358 2.76701 7.04851C3.08115 7.51893 3.52293 7.79888 4.05043 7.9198C5.06245 8.15179 6.40022 7.79687 7.67589 7.00978L6.15178 5.08372C6.0923 5.00855 6.08103 4.90598 6.12279 4.81969C6.16455 4.7334 6.25196 4.67859 6.34783 4.67859H12C12.1381 4.67859 12.25 4.79052 12.25 4.92859V12.0714C12.25 12.1772 12.1835 12.2715 12.0839 12.3069C11.9843 12.3424 11.8732 12.3114 11.8063 12.2295L10.4864 10.612C8.29448 11.4454 6.13985 11.5768 4.50434 10.7274C2.80712 9.84594 1.75 7.95332 1.75 4.92859C1.75 4.79052 1.86193 4.67859 2 4.67859ZM2.64402 7.69081C3.06869 8.96509 3.80981 9.80327 4.73479 10.2837C6.23069 11.0605 8.28882 10.9468 10.4731 10.0808C10.5744 10.0407 10.69 10.0707 10.7589 10.1552L11.75 11.3697V5.17859H6.86446L8.23953 6.91631C8.28296 6.97119 8.30139 7.04175 8.29036 7.11086C8.27933 7.17996 8.23984 7.24128 8.18148 7.27991C6.78539 8.20406 5.20273 8.69691 3.93871 8.40716C3.44417 8.29379 3.00051 8.06044 2.64402 7.69081Z" fill="#0066FF"/>
</svg>
