<svg width="16" height="17" viewBox="0 0 16 17" fill="none" xmlns="http://www.w3.org/2000/svg">
<path fill-rule="evenodd" clip-rule="evenodd" d="M0 8.42886C0 4.0463 3.61739 0.498535 8 0.498535C12.3826 0.498535 16 4.0463 16 8.42886C16 12.8114 12.3826 16.3592 8 16.3592C6.4 16.3592 4.86957 15.8723 3.61739 15.0375L0.556522 16.0114L1.53043 13.0897C0.556522 11.768 0 10.168 0 8.42886ZM12.5913 10.4399C12.6874 10.4994 12.757 10.5424 12.8 10.5854C13.1478 11.2115 12.313 12.6723 10.9913 12.6723C10.9287 12.6828 10.8755 12.6979 10.8223 12.713C10.5207 12.7988 10.2191 12.8845 8.2087 12.1158C6.15793 11.3317 4.78703 9.39707 4.36808 8.80582C4.30383 8.71516 4.26198 8.65609 4.24348 8.63759C3.13043 7.17674 2.85217 5.64631 4.10435 4.32458C4.52174 3.9072 5.49565 3.9072 5.70435 4.46372C5.84348 4.95067 6.33043 6.0637 6.4 6.20283C6.46957 6.34196 6.46957 6.48107 6.4 6.6202C6.3919 6.63641 6.38379 6.65356 6.37514 6.67188C6.30951 6.81079 6.21224 7.01663 5.84348 7.3854C5.83259 7.40717 5.82 7.42895 5.80703 7.451V7.451C5.80518 7.45415 5.80332 7.4573 5.80145 7.46047C5.73304 7.57653 5.65967 7.701 5.77391 7.87236C5.78255 7.88531 5.79252 7.9004 5.80381 7.91748C5.97429 8.1755 6.44318 8.88511 7.09565 9.47233C7.77872 10.1028 8.38241 10.3762 8.72687 10.5322C8.83846 10.5827 8.92285 10.6209 8.97391 10.6549C9.18261 10.7941 9.32174 10.7245 9.46087 10.5854C9.6 10.4463 10.087 9.88975 10.2261 9.68106C10.4223 9.41946 10.557 9.46528 10.7458 9.5295C10.7579 9.53359 10.7701 9.53776 10.7826 9.54192C10.9913 9.61149 12.1739 10.168 12.3826 10.3071C12.4623 10.3602 12.5318 10.4032 12.5913 10.4399Z" fill="#0066FF"/>
</svg>
