<svg width="41" height="41" viewBox="0 0 41 41" fill="none" xmlns="http://www.w3.org/2000/svg">
<rect x="0.19043" y="0.524902" width="40" height="40" rx="20" fill="#0066FF"/>
<path fill-rule="evenodd" clip-rule="evenodd" d="M8.94043 20.4269C8.94043 14.2639 14.0274 9.2749 20.1904 9.2749C26.3535 9.2749 31.4404 14.2639 31.4404 20.4269C31.4404 26.5899 26.3535 31.579 20.1904 31.579C17.9404 31.579 15.7883 30.8942 14.0274 29.7203L9.72304 31.0899L11.0926 26.9812C9.72304 25.1225 8.94043 22.8726 8.94043 20.4269ZM26.6469 23.255C26.7821 23.3386 26.88 23.3991 26.9404 23.4595C27.4296 24.34 26.2556 26.3943 24.397 26.3943C24.3089 26.409 24.2341 26.4302 24.1592 26.4515C23.7352 26.5721 23.3111 26.6927 20.4839 25.6117C17.6 24.5091 15.6722 21.7885 15.083 20.957C14.9927 20.8295 14.9338 20.7465 14.9078 20.7204C13.3426 18.6661 12.9513 16.514 14.7122 14.6553C15.2991 14.0683 16.6687 14.0683 16.9622 14.8509C17.1578 15.5357 17.8426 17.1009 17.9404 17.2966C18.0383 17.4922 18.0383 17.6878 17.9404 17.8835C17.929 17.9063 17.9176 17.9304 17.9055 17.9562C17.8132 18.1515 17.6764 18.441 17.1578 18.9595C17.1425 18.9902 17.1248 19.0208 17.1066 19.0518C17.104 19.0562 17.1013 19.0607 17.0987 19.0651C17.0025 19.2283 16.8993 19.4034 17.06 19.6443C17.0721 19.6626 17.0862 19.6838 17.102 19.7078C17.3418 20.0706 18.0011 21.0685 18.9187 21.8943C19.8792 22.781 20.7282 23.1654 21.2126 23.3847C21.3695 23.4557 21.4882 23.5095 21.56 23.5573C21.8535 23.753 22.0491 23.6552 22.2448 23.4595C22.4404 23.2639 23.1252 22.4813 23.3209 22.1878C23.5968 21.8199 23.7862 21.8844 24.0518 21.9747C24.0687 21.9805 24.0859 21.9863 24.1035 21.9922C24.397 22.09 26.06 22.8726 26.3535 23.0682C26.4655 23.1429 26.5633 23.2034 26.6469 23.255Z" fill="white"/>
</svg>
