<svg width="156" height="41" viewBox="0 0 156 41" fill="none" xmlns="http://www.w3.org/2000/svg">
<rect x="0.964355" y="0.101074" width="154.071" height="40" rx="20" fill="white"/>
<g clip-path="url(#clip0_406_268)">
<path d="M36.2416 14.5089L36.2291 14.5013L36.2002 14.4922C36.2119 14.5023 36.2264 14.5082 36.2416 14.5089Z" fill="#191924"/>
<path d="M36.2469 14.5062C36.2456 14.5061 36.2444 14.5058 36.2432 14.5054V14.5078C36.2445 14.5076 36.2458 14.5071 36.2469 14.5062Z" fill="#191924"/>
<path d="M36.2432 14.5062H36.2445V14.5054L36.2432 14.5062Z" fill="#191924"/>
<path d="M36.4141 15.8627L36.4351 15.8503L36.443 15.8458L36.4501 15.8379C36.4367 15.8439 36.4245 15.8523 36.4141 15.8627Z" fill="#191924"/>
<path d="M36.2778 14.5379L36.2572 14.5176L36.2432 14.5098C36.2507 14.5235 36.2631 14.5336 36.2778 14.5379Z" fill="#191924"/>
<path d="M31.0966 27.6753C31.0802 27.6826 31.0657 27.6942 31.0547 27.7088L31.0677 27.7002C31.0765 27.6918 31.089 27.6819 31.0966 27.6753Z" fill="#191924"/>
<path d="M34.1044 27.0604C34.1044 27.0411 34.0953 27.0447 34.0975 27.1131C34.0975 27.1075 34.0998 27.1019 34.1007 27.0966C34.102 27.0845 34.1029 27.0725 34.1044 27.0604Z" fill="#191924"/>
<path d="M33.7915 27.6753C33.775 27.6826 33.7606 27.6942 33.7495 27.7088L33.7625 27.7002C33.7714 27.6918 33.7839 27.6819 33.7915 27.6753Z" fill="#191924"/>
<path d="M28.9753 27.8201C28.9628 27.8088 28.9475 27.8015 28.9312 27.7988C28.9444 27.8054 28.9576 27.812 28.9665 27.817L28.9753 27.8201Z" fill="#191924"/>
<path d="M28.4959 27.3459C28.494 27.3259 28.488 27.3065 28.4785 27.2891C28.4853 27.3073 28.4909 27.3259 28.4954 27.3449L28.4959 27.3459Z" fill="#191924"/>
<path d="M31.7029 18.8503C31.0479 19.1416 30.3047 19.472 29.3415 19.472C28.9385 19.4711 28.5376 19.4137 28.1494 19.3012L28.8156 26.4094C28.8392 26.7065 28.9694 26.9835 29.1804 27.1855C29.3915 27.3874 29.6679 27.4995 29.9547 27.4994C29.9547 27.4994 30.8993 27.5504 31.2145 27.5504C31.5537 27.5504 32.5709 27.4994 32.5709 27.4994C32.8577 27.4994 33.134 27.3873 33.345 27.1854C33.556 26.9835 33.6862 26.7065 33.7098 26.4094L34.4233 18.5545C34.1044 18.4414 33.7826 18.3662 33.4198 18.3662C32.7924 18.3659 32.2869 18.5905 31.7029 18.8503Z" fill="#FFDD00"/>
<path d="M26.085 15.8247L26.0962 15.8356L26.1036 15.8402C26.0979 15.8343 26.0917 15.8292 26.085 15.8247Z" fill="#191924"/>
<path d="M37.5034 15.1655L37.4031 14.6396C37.313 14.1678 37.1087 13.722 36.6427 13.5514C36.4933 13.4969 36.3238 13.4734 36.2093 13.3605C36.0947 13.2476 36.0608 13.0722 36.0344 12.9096C35.9853 12.6111 35.9392 12.3123 35.8889 12.0143C35.8455 11.7581 35.8111 11.4703 35.6981 11.2353C35.5509 10.9197 35.2456 10.7352 34.9419 10.6131C34.7863 10.5527 34.6275 10.5016 34.4662 10.4601C33.7076 10.2521 32.9099 10.1756 32.1295 10.132C31.1926 10.0783 30.2533 10.0945 29.3187 10.1805C28.6231 10.2462 27.8905 10.3258 27.2294 10.5758C26.9878 10.6674 26.7389 10.7772 26.5551 10.9712C26.3297 11.2096 26.2561 11.5782 26.4207 11.8754C26.5377 12.0865 26.7359 12.2356 26.9461 12.3342C27.2199 12.4613 27.5059 12.5581 27.7992 12.6228C28.616 12.8104 29.462 12.8841 30.2964 12.9154C31.2213 12.9542 32.1477 12.9228 33.0682 12.8214C33.2958 12.7954 33.523 12.7642 33.7498 12.7278C34.0169 12.6852 34.1884 12.3222 34.1096 12.0694C34.0155 11.767 33.7623 11.6498 33.476 11.6954C33.4339 11.7023 33.3919 11.7087 33.3498 11.715L33.3193 11.7196C33.2223 11.7324 33.1254 11.7443 33.0284 11.7553C32.8281 11.7778 32.6273 11.7961 32.426 11.8104C31.9752 11.843 31.5231 11.858 31.0713 11.8588C30.6273 11.8588 30.1831 11.8458 29.7401 11.8155C29.538 11.8017 29.3364 11.7842 29.1353 11.763C29.0438 11.753 28.9525 11.7426 28.8613 11.7308L28.7745 11.7194L28.7556 11.7166L28.6656 11.7031C28.4816 11.6743 28.2976 11.6411 28.1156 11.6011C28.0973 11.5969 28.0808 11.5862 28.0691 11.571C28.0573 11.5557 28.0509 11.5368 28.0509 11.5172C28.0509 11.4977 28.0573 11.4787 28.0691 11.4635C28.0808 11.4482 28.0973 11.4376 28.1156 11.4334H28.1191C28.2768 11.3984 28.4357 11.3686 28.5952 11.3426C28.6483 11.334 28.7016 11.3255 28.7551 11.3171H28.7566C28.8564 11.3102 28.9567 11.2916 29.0561 11.2794C29.9203 11.186 30.7898 11.1541 31.6583 11.1841C32.0799 11.1968 32.5013 11.2226 32.921 11.2669C33.0113 11.2766 33.1011 11.2868 33.1908 11.2983C33.2251 11.3026 33.2597 11.3077 33.2943 11.312L33.364 11.3225C33.567 11.3539 33.7691 11.3921 33.97 11.4369C34.2678 11.5042 34.6502 11.5262 34.7827 11.8652C34.8249 11.9728 34.844 12.0923 34.8673 12.2052L34.897 12.3493C34.8977 12.3518 34.8983 12.3545 34.8987 12.3572C34.9688 12.697 35.0391 13.0369 35.1094 13.3768C35.1145 13.4019 35.1147 13.4279 35.1097 13.453C35.1049 13.4782 35.095 13.502 35.0808 13.523C35.0666 13.5441 35.0484 13.5618 35.0274 13.5752C35.0063 13.5886 34.9828 13.5973 34.9583 13.6009H34.9564L34.9134 13.607L34.871 13.6129C34.7366 13.631 34.602 13.648 34.4672 13.6638C34.2019 13.6953 33.936 13.7225 33.6698 13.7454C33.1408 13.7911 32.6108 13.8211 32.0796 13.8354C31.8091 13.8429 31.5385 13.8464 31.268 13.8459C30.1915 13.845 29.1158 13.7799 28.0465 13.6511C27.9307 13.6368 27.8149 13.6215 27.6991 13.606C27.7889 13.618 27.6339 13.5968 27.6025 13.5922C27.5289 13.5815 27.4553 13.5704 27.3817 13.5588C27.1347 13.5203 26.8892 13.4729 26.6427 13.4314C26.3447 13.3804 26.0597 13.4059 25.7901 13.5588C25.5688 13.6847 25.3897 13.8776 25.2767 14.112C25.1605 14.3618 25.1259 14.6338 25.0739 14.9022C25.0219 15.1706 24.9409 15.4594 24.9716 15.735C25.0376 16.3297 25.4376 16.813 26.0131 16.9211C26.5544 17.0231 27.0987 17.1057 27.6444 17.176C29.7883 17.4489 31.9542 17.4815 34.1047 17.2734C34.2799 17.2564 34.4548 17.2379 34.6294 17.2178C34.6839 17.2116 34.7392 17.2181 34.7909 17.2369C34.8428 17.2557 34.8899 17.2863 34.9288 17.3265C34.9677 17.3667 34.9975 17.4155 35.016 17.4691C35.0345 17.5229 35.0412 17.5801 35.0356 17.6369L34.9811 18.187C34.8714 19.2986 34.7617 20.4101 34.652 21.5215C34.5375 22.6887 34.4223 23.8557 34.3063 25.0227C34.2736 25.3513 34.241 25.6799 34.2083 26.0085C34.1768 26.3319 34.1724 26.6656 34.1133 26.9853C34.0201 27.4879 33.6927 27.7967 33.2149 27.9096C32.7771 28.0131 32.3299 28.0675 31.881 28.0717C31.3833 28.0745 30.8859 28.0515 30.3882 28.0543C29.8569 28.0574 29.2062 28.0065 28.7961 27.5955C28.4357 27.2345 28.3859 26.6694 28.3369 26.1807C28.2715 25.5338 28.2066 24.8869 28.1424 24.2401L27.7818 20.6436L27.5485 18.3165C27.5446 18.278 27.5407 18.24 27.537 18.2013C27.509 17.9237 27.3199 17.6519 27.0219 17.6659C26.7668 17.6777 26.4769 17.903 26.5068 18.2013L26.6797 19.9265L27.0374 23.4953C27.1392 24.5089 27.2409 25.5229 27.3423 26.5369C27.3619 26.7311 27.3803 26.9259 27.4009 27.1201C27.513 28.1815 28.293 28.7536 29.2589 28.9147C29.823 29.009 30.4009 29.0284 30.9734 29.0381C31.7073 29.0503 32.4486 29.0796 33.1704 28.9415C34.2401 28.7375 35.0427 27.9952 35.1572 26.8438C35.1899 26.5114 35.2226 26.1789 35.2554 25.8463C35.3641 24.7465 35.4727 23.6465 35.5811 22.5465L35.9358 18.9522L36.0984 17.305C36.1065 17.2233 36.1397 17.1465 36.1931 17.0859C36.2464 17.0254 36.3171 16.9843 36.3947 16.9687C36.7005 16.9068 36.9929 16.801 37.2105 16.5591C37.5569 16.174 37.6258 15.6718 37.5034 15.1655ZM25.9974 15.5209C26.002 15.5186 25.9934 15.5601 25.9898 15.5795C25.989 15.5502 25.9905 15.5242 25.9974 15.5209ZM26.027 15.7595C26.0295 15.7577 26.0369 15.7679 26.0445 15.7801C26.0329 15.7689 26.0258 15.7605 26.027 15.7595ZM26.0562 15.7995C26.0668 15.8181 26.0724 15.8298 26.0562 15.7995V15.7995ZM26.1149 15.8489H26.1163C26.1163 15.8507 26.119 15.8525 26.12 15.8543C26.1184 15.8523 26.1168 15.8505 26.1149 15.8489ZM36.3805 15.775C36.2706 15.8836 36.105 15.9341 35.9414 15.9593C34.1067 16.2423 32.2452 16.3855 30.3904 16.3223C29.0629 16.2752 27.7494 16.122 26.4352 15.929C26.3064 15.9101 26.1669 15.8857 26.0783 15.787C25.9115 15.6009 25.9934 15.2262 26.0369 15.0014C26.0766 14.7954 26.1526 14.5209 26.3883 14.4915C26.7563 14.4467 27.1836 14.608 27.5476 14.6654C27.9858 14.7349 28.4257 14.7906 28.8672 14.8324C30.7514 15.0108 32.6674 14.983 34.5433 14.722C34.8852 14.6742 35.2259 14.6187 35.5654 14.5555C35.8679 14.4992 36.2031 14.3934 36.3859 14.7189C36.5112 14.9407 36.5279 15.2374 36.5085 15.488C36.5025 15.5972 36.4569 15.6998 36.3805 15.775Z" fill="#191924"/>
<path fill-rule="evenodd" clip-rule="evenodd" d="M50.5587 21.8818C50.4174 22.1513 50.2231 22.3859 49.9759 22.5851C49.7287 22.7843 49.4403 22.9466 49.1107 23.0715C48.7811 23.1967 48.4494 23.2807 48.1159 23.3236C47.7823 23.3666 47.4585 23.3629 47.1447 23.3119C46.8308 23.2611 46.5637 23.1576 46.3442 23.0012L46.5915 20.4341C46.819 20.3561 47.1052 20.2759 47.4507 20.1938C47.796 20.1119 48.1511 20.0531 48.5162 20.018C48.8811 19.9828 49.2263 19.9869 49.5522 20.0298C49.8776 20.0727 50.1348 20.1763 50.3231 20.3405C50.4252 20.4341 50.5116 20.5357 50.5823 20.6451C50.6527 20.7546 50.6959 20.8679 50.7118 20.9851C50.7509 21.3133 50.7 21.6122 50.5587 21.8818ZM46.968 16.4135C47.1329 16.312 47.331 16.222 47.5626 16.1438C47.7941 16.0659 48.0315 16.011 48.2748 15.9798C48.518 15.9487 48.7554 15.9445 48.9871 15.968C49.2184 15.9915 49.4227 16.0559 49.5992 16.1613C49.7757 16.2669 49.9072 16.4193 49.9936 16.6185C50.0799 16.8179 50.1034 17.07 50.0642 17.3747C50.0328 17.6169 49.9365 17.8221 49.7757 17.9901C49.6149 18.1583 49.4185 18.2988 49.1872 18.4121C48.9557 18.5255 48.7105 18.6154 48.4515 18.6815C48.1923 18.7482 47.9431 18.7971 47.7038 18.8282C47.4645 18.8596 47.2565 18.8792 47.08 18.8868C46.9033 18.8947 46.7874 18.8985 46.7326 18.8985L46.968 16.4135ZM51.8301 20.2231C51.7045 19.9498 51.5357 19.7095 51.3239 19.5021C51.112 19.2951 50.8607 19.1448 50.5705 19.0509C50.6959 18.9494 50.8196 18.7892 50.9413 18.5703C51.0629 18.3517 51.1668 18.1132 51.2531 17.8553C51.3395 17.5973 51.3984 17.3377 51.4299 17.0758C51.461 16.8141 51.4493 16.5893 51.3946 16.4016C51.2609 15.9329 51.0511 15.5656 50.7646 15.2998C50.478 15.0342 50.1447 14.8506 49.764 14.7489C49.3833 14.6476 48.9635 14.6259 48.5044 14.6845C48.0452 14.7431 47.5761 14.8583 47.0976 15.0302C47.0976 14.9913 47.1015 14.9502 47.1094 14.9072C47.117 14.8644 47.1211 14.8194 47.1211 14.7724C47.1211 14.6552 47.0623 14.5538 46.9446 14.4677C46.8268 14.3817 46.6914 14.331 46.5384 14.3152C46.3854 14.2998 46.2362 14.3328 46.091 14.4149C45.9457 14.4969 45.8456 14.6476 45.7908 14.8661C45.728 15.5695 45.6652 16.3002 45.6025 17.0581C45.5396 17.8162 45.473 18.5821 45.4023 19.3558C45.3317 20.1294 45.261 20.8972 45.1905 21.6591C45.1198 22.4211 45.0492 23.1536 44.9785 23.8569C45.0021 24.0679 45.061 24.2321 45.1552 24.3493C45.2493 24.4666 45.3592 24.5369 45.4848 24.5603C45.6103 24.5838 45.7418 24.5621 45.8791 24.4957C46.0163 24.4295 46.1361 24.314 46.2383 24.15C46.552 24.3219 46.9053 24.4333 47.2977 24.4841C47.6901 24.5349 48.0883 24.5349 48.4927 24.4841C48.8967 24.4333 49.295 24.3377 49.6875 24.1968C50.0799 24.0563 50.4369 23.8804 50.7588 23.6695C51.0805 23.4585 51.3513 23.218 51.5711 22.9485C51.7908 22.6788 51.936 22.3877 52.0066 22.0753C52.0773 21.7549 52.0968 21.4345 52.0655 21.1141C52.0341 20.7937 51.9555 20.4969 51.8301 20.2231Z" fill="#0D0C23"/>
<path fill-rule="evenodd" clip-rule="evenodd" d="M63.3142 26.4111C63.2711 26.669 63.2101 26.9405 63.1317 27.2259C63.0532 27.511 62.961 27.7709 62.8551 28.0055C62.7492 28.2399 62.6314 28.4291 62.5021 28.5739C62.3724 28.7184 62.2331 28.7791 62.084 28.7557C61.9663 28.7398 61.8917 28.6656 61.8604 28.5329C61.829 28.3999 61.829 28.2358 61.8604 28.0406C61.8917 27.8451 61.9524 27.6243 62.0428 27.3782C62.133 27.1321 62.2429 26.8877 62.3724 26.6457C62.5021 26.4033 62.6492 26.1709 62.8139 25.9482C62.9788 25.7256 63.1512 25.5398 63.3318 25.3914C63.3711 25.4383 63.3887 25.5555 63.3849 25.7431C63.3807 25.9307 63.3572 26.1534 63.3142 26.4111ZM67.3052 21.3239C67.1991 21.2067 67.0696 21.1403 66.9165 21.1246C66.7636 21.109 66.6084 21.1949 66.4516 21.3825C66.3495 21.57 66.22 21.7497 66.063 21.9217C65.906 22.0937 65.7433 22.2499 65.5745 22.3905C65.4057 22.5311 65.2449 22.6525 65.0918 22.7539C64.9388 22.8556 64.8191 22.9298 64.7328 22.9767C64.7014 22.7267 64.6836 22.4571 64.6799 22.1678C64.6757 21.8787 64.6817 21.5857 64.6975 21.2887C64.721 20.8667 64.7699 20.4409 64.8446 20.011C64.9191 19.5813 65.0271 19.1592 65.1684 18.7449C65.1684 18.5263 65.1172 18.3484 65.0153 18.2116C64.9132 18.0749 64.7896 17.9889 64.6444 17.9537C64.4992 17.9187 64.3502 17.9381 64.1971 18.0123C64.0441 18.0867 63.9127 18.2216 63.8027 18.4167C63.7086 18.6747 63.6007 18.9638 63.4791 19.2841C63.3572 19.6046 63.22 19.9309 63.0671 20.2629C62.914 20.5953 62.7432 20.9176 62.5549 21.23C62.3664 21.5427 62.1605 21.8203 61.9368 22.0623C61.7132 22.3046 61.4697 22.4942 61.207 22.6309C60.9439 22.7677 60.6596 22.8282 60.3535 22.8126C60.2121 22.7735 60.1101 22.6681 60.0474 22.496C59.9844 22.3243 59.9473 22.1092 59.9356 21.8513C59.9238 21.5935 59.9356 21.3102 59.9708 21.0015C60.0063 20.6929 60.0533 20.3861 60.1121 20.0814C60.171 19.7765 60.2358 19.4874 60.3063 19.2139C60.377 18.9405 60.4436 18.7098 60.5065 18.5223C60.6007 18.2958 60.6007 18.106 60.5065 17.9537C60.4123 17.8013 60.2828 17.6999 60.1181 17.6489C59.9532 17.5982 59.7804 17.6003 59.6001 17.6549C59.4195 17.7096 59.29 17.8306 59.2116 18.0181C59.078 18.3387 58.9564 18.6981 58.8465 19.0966C58.7366 19.4951 58.6483 19.9075 58.5818 20.3333C58.5149 20.7593 58.4775 21.1814 58.4698 21.5994C58.4693 21.6266 58.4706 21.6525 58.4705 21.6796C58.2993 22.1339 58.1363 22.4773 57.9814 22.707C57.7812 23.0041 57.5554 23.1331 57.3044 23.0938C57.1943 23.047 57.122 22.9377 57.0868 22.7656C57.0511 22.5939 57.0394 22.3828 57.0511 22.1325C57.0631 21.8827 57.0926 21.5994 57.1395 21.2828C57.1868 20.9663 57.2454 20.6381 57.316 20.2982C57.3868 19.9581 57.4613 19.6165 57.5397 19.2725C57.6181 18.9287 57.6888 18.6043 57.7518 18.2995C57.7439 18.026 57.6634 17.8171 57.5103 17.6724C57.3574 17.528 57.1434 17.4713 56.8689 17.5024C56.6806 17.5807 56.5411 17.6823 56.4508 17.8073C56.3605 17.9322 56.2879 18.0925 56.2331 18.2877C56.2016 18.3895 56.1545 18.5926 56.0918 18.8975C56.0289 19.2021 55.9486 19.5519 55.8505 19.9465C55.7523 20.3413 55.6366 20.7534 55.5032 21.1832C55.3697 21.6129 55.2206 22.002 55.0559 22.3495C54.891 22.6972 54.7104 22.9767 54.5144 23.1877C54.3181 23.3985 54.1062 23.4847 53.8786 23.4455C53.753 23.422 53.6726 23.2931 53.6374 23.0587C53.6019 22.8242 53.5961 22.5353 53.6196 22.1913C53.6432 21.8475 53.6903 21.4703 53.7609 21.0602C53.8315 20.6499 53.904 20.2611 53.9787 19.8937C54.0532 19.5265 54.1218 19.2021 54.1847 18.9208C54.2474 18.6395 54.2906 18.4519 54.3142 18.3583C54.3142 18.1316 54.263 17.9501 54.1611 17.8131C54.059 17.6765 53.9355 17.5905 53.7903 17.5552C53.645 17.5201 53.4959 17.5396 53.343 17.6138C53.1899 17.6881 53.0585 17.8231 52.9486 18.0181C52.9093 18.2291 52.8582 18.4735 52.7955 18.7509C52.7326 19.0282 52.672 19.3134 52.6131 19.6065C52.5543 19.8997 52.4992 20.1868 52.4482 20.4682C52.3971 20.7495 52.36 20.9957 52.3364 21.2067C52.3207 21.3707 52.3029 21.5721 52.2835 21.8103C52.2638 22.0488 52.2539 22.3007 52.2539 22.5663C52.2539 22.8323 52.2735 23.0959 52.3129 23.3577C52.352 23.6195 52.4227 23.8599 52.5247 24.0785C52.6267 24.2973 52.7699 24.477 52.9545 24.6177C53.1388 24.7583 53.3724 24.8364 53.655 24.8522C53.9452 24.8677 54.1983 24.8464 54.4143 24.7877C54.6301 24.7291 54.8262 24.6371 55.0029 24.5121C55.1794 24.3873 55.3403 24.2387 55.4855 24.0667C55.6306 23.8949 55.7739 23.7074 55.9152 23.5041C56.0487 23.8013 56.2212 24.0316 56.4332 24.1958C56.6451 24.3598 56.8689 24.4577 57.1042 24.4887C57.3396 24.5198 57.5792 24.4869 57.8225 24.3891C58.0656 24.2915 58.2853 24.1255 58.4817 23.8909C58.6109 23.7471 58.7327 23.5837 58.8471 23.403C58.8957 23.4876 58.9473 23.5693 59.0055 23.6447C59.1978 23.8949 59.4589 24.0667 59.7885 24.1605C60.1416 24.2544 60.4867 24.2701 60.8244 24.2075C61.1618 24.1451 61.4837 24.0316 61.7897 23.8676C62.0958 23.7034 62.3802 23.5062 62.6432 23.2755C62.906 23.0451 63.1356 22.8049 63.3318 22.5546C63.3239 22.7344 63.32 22.9045 63.32 23.0645C63.32 23.2249 63.3162 23.3985 63.3084 23.5862C62.9158 23.8599 62.545 24.1881 62.1959 24.5708C61.8466 24.9536 61.5404 25.362 61.2775 25.7957C61.0147 26.2294 60.8086 26.669 60.6596 27.1144C60.5105 27.5601 60.4377 27.976 60.4418 28.363C60.4456 28.7498 60.5378 29.0877 60.7183 29.3767C60.8988 29.666 61.1931 29.873 61.6013 29.9981C62.0252 30.131 62.3978 30.1347 62.7198 30.0098C63.0415 29.8847 63.322 29.6776 63.5614 29.3885C63.8008 29.0994 63.9969 28.7498 64.1501 28.3395C64.3031 27.9292 64.4248 27.5013 64.515 27.0559C64.6052 26.6105 64.6621 26.1726 64.6857 25.7431C64.7093 25.3132 64.7093 24.9301 64.6857 24.5942C65.3606 24.3129 65.9138 23.9574 66.3456 23.5275C66.7772 23.098 67.1343 22.6445 67.4168 22.1678C67.5032 22.0506 67.5326 21.9099 67.5053 21.7459C67.4776 21.5817 67.411 21.4411 67.3052 21.3239Z" fill="#0D0C23"/>
<path fill-rule="evenodd" clip-rule="evenodd" d="M82.1551 20.5734C82.1786 20.3937 82.214 20.2041 82.261 20.0049C82.308 19.8056 82.3671 19.6121 82.4377 19.4246C82.5082 19.2371 82.5906 19.0749 82.6849 18.9381C82.7791 18.8015 82.8792 18.7038 82.9851 18.645C83.0911 18.5866 83.1988 18.5924 83.3088 18.6626C83.4265 18.7331 83.499 18.8815 83.5266 19.108C83.5539 19.3349 83.5266 19.577 83.4442 19.8349C83.3618 20.0929 83.2147 20.335 83.0027 20.5616C82.7909 20.7884 82.5043 20.9367 82.1433 21.007C82.1275 20.8979 82.1315 20.7532 82.1551 20.5734ZM86.2342 21.0539C86.1047 21.0151 85.9812 21.0111 85.8634 21.0423C85.7457 21.0735 85.671 21.1556 85.6398 21.2885C85.5768 21.5385 85.4767 21.7945 85.3394 22.0562C85.2021 22.3181 85.0334 22.5661 84.8334 22.8006C84.6333 23.035 84.4075 23.2421 84.1564 23.4218C83.9053 23.6016 83.6423 23.7305 83.3677 23.8086C83.0928 23.8947 82.8653 23.9044 82.6849 23.8379C82.5043 23.7717 82.3611 23.6583 82.2552 23.4981C82.1493 23.3379 82.0727 23.1445 82.0257 22.9178C81.9785 22.6912 81.951 22.4568 81.9432 22.2144C82.3905 22.2458 82.7888 22.1658 83.1381 21.9741C83.4872 21.7829 83.7835 21.5287 84.0269 21.2123C84.2701 20.8958 84.4546 20.5402 84.5801 20.1455C84.7056 19.751 84.7764 19.3583 84.7921 18.9675C84.7999 18.6001 84.745 18.2896 84.6273 18.0356C84.5097 17.7817 84.3506 17.5841 84.1505 17.4436C83.9505 17.3029 83.7208 17.2208 83.4618 17.1975C83.203 17.174 82.9398 17.2092 82.6731 17.3029C82.3511 17.4123 82.0785 17.5901 81.8549 17.8363C81.6312 18.0825 81.4447 18.3679 81.2958 18.692C81.1466 19.0163 81.0289 19.366 80.9426 19.7411C80.8561 20.1163 80.7934 20.4855 80.7543 20.8489C80.7188 21.1751 80.7 21.4869 80.6933 21.7879C80.6765 21.8261 80.6603 21.8629 80.6424 21.9037C80.5206 22.1814 80.3792 22.4529 80.2185 22.7185C80.0577 22.9843 79.879 23.2071 79.6829 23.3867C79.4867 23.5665 79.2827 23.6289 79.0707 23.5742C78.9452 23.5431 78.8766 23.3983 78.8648 23.1406C78.853 22.8826 78.8666 22.5623 78.9059 22.1793C78.9452 21.7965 78.9903 21.3821 79.0413 20.9367C79.0923 20.4913 79.1178 20.0655 79.1178 19.6591C79.1178 19.3074 79.0511 18.9695 78.9177 18.645C78.7841 18.321 78.6016 18.0512 78.3703 17.8363C78.1386 17.6213 77.87 17.4787 77.564 17.4085C77.2578 17.338 76.9282 17.385 76.5751 17.549C76.2217 17.7132 75.9413 17.9437 75.7333 18.2407C75.5252 18.5378 75.3349 18.8503 75.1624 19.1785C75.0994 18.9283 75.0074 18.6961 74.8856 18.481C74.764 18.2661 74.6151 18.0786 74.4383 17.9183C74.2617 17.7583 74.0634 17.6332 73.8439 17.5432C73.6241 17.4535 73.3924 17.4085 73.1491 17.4085C72.9138 17.4085 72.696 17.4535 72.4959 17.5432C72.2958 17.6332 72.1132 17.7483 71.9484 17.889C71.7837 18.0298 71.6346 18.1879 71.5011 18.3638C71.3677 18.5396 71.2497 18.7136 71.148 18.8853C71.1321 18.6822 71.1144 18.5045 71.095 18.3519C71.0753 18.1997 71.0399 18.0707 70.989 17.9653C70.9379 17.8597 70.8655 17.7797 70.7712 17.7249C70.6769 17.6704 70.5436 17.6429 70.3711 17.6429C70.2846 17.6429 70.1982 17.6604 70.112 17.6955C70.0255 17.7307 69.9489 17.7797 69.8824 17.8421C69.8157 17.9049 69.7647 17.9809 69.7295 18.0707C69.6939 18.1605 69.6844 18.2642 69.7 18.3813C69.7077 18.4675 69.7295 18.5708 69.7647 18.692C69.8 18.8132 69.8333 18.9716 69.8648 19.1667C69.896 19.3621 69.9216 19.5986 69.9413 19.8759C69.9609 20.1534 69.9667 20.4934 69.9589 20.8958C69.951 21.2983 69.9216 21.769 69.8706 22.3083C69.8194 22.8475 69.739 23.4727 69.6293 24.1837C69.6136 24.3478 69.6763 24.4808 69.8178 24.5823C69.9589 24.6837 70.1198 24.7423 70.3003 24.7581C70.4807 24.7737 70.6516 24.7423 70.8124 24.6644C70.9733 24.5861 71.0656 24.4494 71.089 24.2541C71.1126 23.8868 71.1577 23.4961 71.2245 23.0819C71.2911 22.6678 71.3735 22.2575 71.4717 21.8511C71.5698 21.4448 71.6815 21.058 71.8072 20.6905C71.9327 20.3233 72.0721 19.9991 72.2251 19.7177C72.3782 19.4363 72.5371 19.2118 72.7018 19.0437C72.8668 18.8757 73.0393 18.7917 73.22 18.7917C73.4397 18.7917 73.6102 18.8911 73.7321 19.0904C73.8535 19.2899 73.9398 19.5459 73.991 19.8582C74.042 20.1709 74.0654 20.513 74.0617 20.8841C74.0575 21.2552 74.042 21.6127 74.0145 21.9565C73.987 22.3005 73.9557 22.6071 73.9203 22.8768C73.885 23.1464 73.8595 23.3321 73.8439 23.4335C73.8439 23.6133 73.9125 23.7558 74.0498 23.8614C74.187 23.9668 74.3401 24.0295 74.509 24.0489C74.6778 24.0685 74.8365 24.0372 74.9857 23.9551C75.1348 23.873 75.2211 23.7345 75.2447 23.539C75.3231 22.9764 75.4311 22.4119 75.5684 21.8453C75.7056 21.2787 75.8627 20.7709 76.0394 20.3215C76.2159 19.8721 76.412 19.5047 76.628 19.2195C76.8438 18.9344 77.0733 18.7917 77.3168 18.7917C77.4421 18.7917 77.5384 18.8777 77.605 19.0495C77.6717 19.2215 77.7051 19.4558 77.7051 19.7528C77.7051 19.9717 77.6875 20.1964 77.6522 20.4269C77.6168 20.6574 77.5758 20.8958 77.5286 21.1419C77.4815 21.3882 77.4403 21.6401 77.4049 21.8979C77.3697 22.1559 77.352 22.4254 77.352 22.7068C77.352 22.9022 77.3716 23.1289 77.4109 23.3867C77.45 23.6444 77.5246 23.8889 77.6344 24.1193C77.7444 24.3499 77.8953 24.5451 78.0879 24.7053C78.2801 24.8655 78.5252 24.9457 78.8234 24.9457C79.2709 24.9457 79.6671 24.8499 80.0126 24.6585C80.3579 24.4671 80.6542 24.2171 80.9014 23.9084C80.9142 23.8922 80.9258 23.8749 80.9384 23.8589C80.9573 23.9045 80.9741 23.9529 80.9954 23.9963C81.1642 24.3401 81.3938 24.6057 81.6842 24.7933C81.9744 24.9809 82.3158 25.0844 82.7084 25.104C83.1008 25.1233 83.5284 25.0511 83.9917 24.8871C84.3369 24.762 84.637 24.6057 84.8921 24.4182C85.1471 24.2307 85.3766 24.0021 85.5808 23.7325C85.7849 23.4629 85.9712 23.1522 86.1401 22.8006C86.3089 22.4488 86.4795 22.0465 86.6521 21.5931C86.6835 21.4683 86.654 21.3569 86.564 21.2591C86.4736 21.1615 86.3638 21.0931 86.2342 21.0539Z" fill="#0D0C23"/>
<path fill-rule="evenodd" clip-rule="evenodd" d="M92.634 19.7486C92.5947 19.9792 92.542 20.2334 92.4753 20.5106C92.4086 20.788 92.3238 21.0752 92.2224 21.3722C92.1204 21.6692 91.9943 21.9368 91.8455 22.1751C91.6961 22.4136 91.5256 22.603 91.3333 22.7436C91.141 22.8843 90.9194 22.9429 90.6681 22.9194C90.5425 22.9039 90.4464 22.818 90.3797 22.6615C90.3129 22.5054 90.2777 22.306 90.2737 22.0637C90.2698 21.8216 90.2913 21.5558 90.3385 21.2666C90.3855 20.9777 90.4581 20.6942 90.5564 20.4167C90.6544 20.1395 90.7742 19.8834 90.9153 19.6489C91.0566 19.4146 91.2194 19.2328 91.4039 19.1039C91.5883 18.975 91.7908 18.9146 92.0103 18.9222C92.2298 18.93 92.4653 19.0394 92.7168 19.2504C92.7008 19.3521 92.6734 19.5182 92.634 19.7486ZM96.8189 20.6453C96.6974 20.5828 96.572 20.5693 96.4426 20.6044C96.3132 20.6395 96.2205 20.7588 96.1658 20.9619C96.1344 21.1808 96.0637 21.4385 95.9543 21.7355C95.8442 22.0325 95.7088 22.314 95.548 22.5794C95.3866 22.8452 95.2024 23.066 94.9943 23.2418C94.7862 23.4177 94.5647 23.4979 94.3292 23.482C94.133 23.4665 93.9956 23.3669 93.9176 23.1832C93.8389 22.9996 93.7975 22.7692 93.7935 22.4916C93.7895 22.2144 93.8175 21.9018 93.8762 21.5539C93.9349 21.2062 94.0056 20.8605 94.0877 20.5164C94.1704 20.1727 94.2545 19.8424 94.3412 19.526C94.4273 19.2095 94.498 18.9418 94.5533 18.723C94.616 18.5276 94.596 18.3617 94.494 18.2247C94.3919 18.0882 94.2645 17.9904 94.1117 17.9318C93.9583 17.8732 93.8035 17.8576 93.6467 17.8849C93.4893 17.9123 93.3879 17.9963 93.3405 18.1368C92.8775 17.7383 92.4319 17.5234 92.0043 17.4922C91.5765 17.461 91.1821 17.5548 90.8212 17.7735C90.4601 17.9923 90.1403 18.3088 89.8618 18.723C89.5831 19.1374 89.3574 19.5886 89.1848 20.0769C89.0121 20.5653 88.9041 21.0636 88.8612 21.5715C88.8178 22.0795 88.8511 22.5426 88.9612 22.9606C89.0711 23.3786 89.2651 23.7206 89.544 23.9861C89.8223 24.2518 90.2011 24.3848 90.6799 24.3848C90.8919 24.3848 91.0959 24.3418 91.2921 24.2559C91.4882 24.1698 91.6688 24.0682 91.8335 23.951C91.9983 23.8338 92.1437 23.7107 92.2691 23.5818C92.3945 23.4528 92.4926 23.3454 92.5633 23.2594C92.618 23.5407 92.7088 23.7792 92.8342 23.9745C92.9596 24.1698 93.103 24.3302 93.2638 24.455C93.4246 24.5799 93.5934 24.6718 93.7701 24.7306C93.9469 24.7892 94.1177 24.8184 94.2825 24.8184C94.6514 24.8184 94.9963 24.6934 95.3185 24.4432C95.6401 24.1934 95.9283 23.8865 96.1838 23.5232C96.4386 23.1597 96.6487 22.7769 96.8135 22.3744C96.9783 21.972 97.0877 21.6144 97.1431 21.3017C97.1978 21.1845 97.1878 21.0616 97.1137 20.9326C97.039 20.8037 96.9409 20.708 96.8189 20.6453Z" fill="#0D0C23"/>
<path fill-rule="evenodd" clip-rule="evenodd" d="M118.009 27.1156C117.943 27.3812 117.839 27.606 117.697 27.7895C117.556 27.9732 117.379 28.0689 117.168 28.0768C117.034 28.0846 116.932 28.0142 116.861 27.8658C116.791 27.7172 116.742 27.5258 116.714 27.2914C116.687 27.057 116.675 26.795 116.679 26.506C116.683 26.2169 116.695 25.9316 116.714 25.6503C116.734 25.3691 116.757 25.107 116.785 24.865C116.812 24.6226 116.834 24.4353 116.849 24.3024C117.116 24.3336 117.338 24.4487 117.515 24.6481C117.691 24.8474 117.827 25.0837 117.921 25.3573C118.015 25.6308 118.07 25.9258 118.086 26.2423C118.102 26.5588 118.076 26.8498 118.009 27.1156ZM113.747 27.1156C113.681 27.3812 113.577 27.606 113.436 27.7895C113.294 27.9732 113.118 28.0689 112.906 28.0768C112.773 28.0846 112.671 28.0142 112.6 27.8658C112.529 27.7172 112.48 27.5258 112.452 27.2914C112.425 27.057 112.413 26.795 112.417 26.506C112.421 26.2169 112.433 25.9316 112.452 25.6503C112.472 25.3691 112.496 25.107 112.523 24.865C112.551 24.6226 112.572 24.4353 112.588 24.3024C112.855 24.3336 113.077 24.4487 113.253 24.6481C113.43 24.8474 113.565 25.0837 113.659 25.3573C113.753 25.6308 113.809 25.9258 113.824 26.2423C113.84 26.5588 113.814 26.8498 113.747 27.1156ZM109.374 20.4576C109.366 20.645 109.348 20.811 109.321 20.9556C109.294 21.1004 109.256 21.192 109.21 21.2312C109.123 21.1842 109.017 21.0633 108.891 20.8677C108.766 20.6724 108.668 20.4515 108.597 20.2054C108.527 19.9592 108.504 19.7171 108.533 19.4786C108.56 19.2404 108.683 19.0549 108.903 18.9218C108.989 18.875 109.064 18.8925 109.127 18.9746C109.19 19.0567 109.241 19.1758 109.28 19.3321C109.319 19.4886 109.346 19.6682 109.362 19.8714C109.378 20.0746 109.382 20.2699 109.374 20.4576ZM108.332 22.796C108.21 22.9248 108.075 23.0362 107.926 23.13C107.777 23.2239 107.624 23.2942 107.467 23.3411C107.31 23.3881 107.169 23.3997 107.044 23.3762C106.69 23.306 106.419 23.1534 106.231 22.919C106.043 22.6847 105.923 22.4092 105.872 22.0928C105.821 21.7762 105.827 21.4382 105.889 21.0788C105.952 20.7193 106.058 20.3853 106.208 20.0766C106.356 19.7678 106.537 19.5021 106.749 19.2795C106.961 19.0567 107.192 18.9181 107.444 18.8632C107.349 19.2618 107.318 19.6742 107.349 20.0999C107.38 20.5258 107.483 20.9263 107.655 21.3014C107.765 21.5283 107.897 21.7352 108.05 21.9227C108.203 22.1104 108.389 22.2705 108.609 22.4033C108.547 22.5362 108.454 22.6671 108.332 22.796ZM121.358 20.5748C121.382 20.3951 121.417 20.2054 121.465 20.0061C121.511 19.807 121.571 19.6135 121.641 19.426C121.711 19.2383 121.794 19.0762 121.888 18.9395C121.982 18.8028 122.082 18.705 122.188 18.6464C122.294 18.5878 122.402 18.5936 122.512 18.664C122.63 18.7344 122.702 18.8828 122.73 19.1094C122.757 19.3361 122.73 19.5782 122.647 19.8362C122.565 20.0941 122.418 20.3364 122.206 20.5628C121.994 20.7898 121.707 20.938 121.346 21.0084C121.331 20.8991 121.335 20.7546 121.358 20.5748ZM126.103 20.5748C126.126 20.3951 126.162 20.2054 126.208 20.0061C126.256 19.807 126.314 19.6135 126.385 19.426C126.456 19.2383 126.538 19.0762 126.633 18.9395C126.727 18.8028 126.827 18.705 126.933 18.6464C127.039 18.5878 127.146 18.5936 127.256 18.664C127.374 18.7344 127.447 18.8828 127.474 19.1094C127.502 19.3361 127.474 19.5782 127.392 19.8362C127.309 20.0941 127.162 20.3364 126.95 20.5628C126.739 20.7898 126.452 20.938 126.091 21.0084C126.075 20.8991 126.079 20.7546 126.103 20.5748ZM130.511 21.2604C130.421 21.1629 130.311 21.0945 130.182 21.0552C130.052 21.0163 129.929 21.0124 129.811 21.0436C129.693 21.0749 129.619 21.157 129.587 21.2898C129.525 21.5399 129.425 21.7958 129.287 22.0574C129.15 22.3194 128.981 22.5675 128.781 22.8018C128.581 23.0362 128.355 23.2435 128.104 23.4232C127.853 23.603 127.59 23.7319 127.315 23.8098C127.04 23.8961 126.813 23.9058 126.633 23.8393C126.452 23.773 126.308 23.6596 126.203 23.4994C126.097 23.3392 126.02 23.1458 125.974 22.919C125.926 22.6926 125.899 22.4582 125.891 22.2158C126.339 22.2472 126.737 22.1672 127.086 21.9755C127.435 21.7841 127.731 21.5299 127.975 21.2135C128.218 20.8972 128.403 20.5416 128.528 20.1469C128.653 19.7522 128.724 19.3596 128.74 18.9688C128.747 18.6015 128.693 18.2908 128.575 18.0368C128.457 17.783 128.298 17.5855 128.098 17.445C127.898 17.3042 127.669 17.2222 127.409 17.1987C127.15 17.1752 126.888 17.2106 126.621 17.3042C126.299 17.4138 126.026 17.5914 125.803 17.8376C125.579 18.0838 125.393 18.3692 125.243 18.6932C125.094 19.0178 124.976 19.3672 124.89 19.7424C124.803 20.1174 124.741 20.4868 124.702 20.8502C124.664 21.2028 124.643 21.5402 124.639 21.8632C124.609 21.9276 124.577 21.9923 124.543 22.0574C124.405 22.3194 124.237 22.5675 124.037 22.8018C123.837 23.0362 123.611 23.2435 123.36 23.4232C123.108 23.603 122.845 23.7319 122.571 23.8098C122.296 23.8961 122.069 23.9058 121.888 23.8393C121.707 23.773 121.565 23.6596 121.459 23.4994C121.352 23.3392 121.276 23.1458 121.229 22.919C121.182 22.6926 121.154 22.4582 121.146 22.2158C121.594 22.2472 121.992 22.1672 122.342 21.9755C122.691 21.7841 122.987 21.5299 123.23 21.2135C123.473 20.8972 123.658 20.5416 123.783 20.1469C123.909 19.7522 123.98 19.3596 123.996 18.9688C124.003 18.6015 123.948 18.2908 123.831 18.0368C123.713 17.783 123.554 17.5855 123.354 17.445C123.154 17.3042 122.924 17.2222 122.665 17.1987C122.407 17.1752 122.143 17.2106 121.876 17.3042C121.555 17.4138 121.282 17.5914 121.058 17.8376C120.835 18.0838 120.648 18.3692 120.499 18.6932C120.35 19.0178 120.232 19.3672 120.146 19.7424C120.06 20.1174 119.997 20.4868 119.958 20.8502C119.936 21.0551 119.92 21.2538 119.91 21.4489C119.833 21.5131 119.759 21.5778 119.681 21.6413C119.411 21.8602 119.126 22.0574 118.827 22.2334C118.529 22.4092 118.219 22.5538 117.897 22.6671C117.575 22.7804 117.246 22.8488 116.908 22.8722L117.639 15.0888C117.685 14.9246 117.662 14.7802 117.568 14.6551C117.474 14.5301 117.352 14.4441 117.203 14.3973C117.054 14.3503 116.895 14.3543 116.726 14.4089C116.557 14.4637 116.418 14.5888 116.308 14.7839C116.253 15.081 116.196 15.4873 116.138 16.003C116.078 16.5188 116.02 17.0815 115.961 17.6911C115.902 18.3006 115.843 18.9297 115.784 19.5782C115.725 20.227 115.674 20.8326 115.631 21.3952C115.629 21.4202 115.628 21.4428 115.626 21.4675C115.557 21.5254 115.491 21.5839 115.419 21.6413C115.149 21.8602 114.864 22.0574 114.566 22.2334C114.267 22.4092 113.957 22.5538 113.636 22.6671C113.314 22.7804 112.984 22.8488 112.647 22.8722L113.377 15.0888C113.424 14.9246 113.4 14.7802 113.306 14.6551C113.212 14.5301 113.09 14.4441 112.941 14.3973C112.792 14.3503 112.633 14.3543 112.464 14.4089C112.296 14.4637 112.156 14.5888 112.046 14.7839C111.992 15.081 111.935 15.4873 111.876 16.003C111.817 16.5188 111.758 17.0815 111.699 17.6911C111.641 18.3006 111.582 18.9297 111.523 19.5782C111.464 20.227 111.412 20.8326 111.37 21.3952C111.369 21.4065 111.368 21.4168 111.367 21.428C111.244 21.485 111.11 21.535 110.963 21.5769C110.814 21.62 110.646 21.6455 110.457 21.6532C110.488 21.5124 110.514 21.3561 110.534 21.1842C110.553 21.0124 110.569 20.8326 110.581 20.645C110.593 20.4576 110.597 20.2699 110.593 20.0824C110.589 19.8947 110.579 19.7229 110.563 19.5665C110.524 19.2307 110.451 18.9122 110.346 18.6112C110.24 18.3105 110.096 18.0586 109.916 17.8551C109.735 17.652 109.51 17.5152 109.239 17.445C108.968 17.3746 108.652 17.398 108.291 17.5152C107.757 17.445 107.277 17.4939 106.849 17.6618C106.421 17.83 106.05 18.074 105.737 18.3944C105.422 18.715 105.166 19.0918 104.965 19.5256C104.765 19.9592 104.632 20.4048 104.565 20.8618C104.537 21.0556 104.523 21.2484 104.519 21.4408C104.398 21.6886 104.264 21.9051 104.118 22.0868C103.91 22.3447 103.694 22.5558 103.47 22.7198C103.247 22.884 103.025 23.009 102.805 23.095C102.585 23.1811 102.389 23.2396 102.217 23.2708C102.013 23.3098 101.817 23.3139 101.628 23.2825C101.44 23.2514 101.267 23.1614 101.11 23.0129C100.985 22.9036 100.888 22.7276 100.821 22.4854C100.755 22.2432 100.716 21.9679 100.704 21.659C100.692 21.3503 100.704 21.0279 100.739 20.692C100.775 20.356 100.835 20.0374 100.921 19.7366C101.008 19.4358 101.118 19.1662 101.252 18.9276C101.384 18.6896 101.542 18.5194 101.722 18.4178C101.824 18.4336 101.887 18.494 101.911 18.5994C101.934 18.705 101.94 18.8301 101.928 18.9746C101.917 19.1193 101.899 19.2677 101.875 19.42C101.852 19.5724 101.84 19.6996 101.84 19.801C101.879 20.012 101.955 20.1762 102.069 20.2934C102.183 20.4106 102.311 20.4791 102.452 20.4984C102.593 20.5181 102.733 20.4849 102.87 20.3988C103.007 20.313 103.119 20.1762 103.206 19.9885C103.214 19.9964 103.225 20.0003 103.241 20.0003L103.406 18.5117C103.452 18.3084 103.421 18.1288 103.312 17.9724C103.202 17.8162 103.056 17.7262 102.876 17.7028C102.648 17.3746 102.34 17.2008 101.952 17.1812C101.563 17.1617 101.165 17.2887 100.757 17.5622C100.506 17.7421 100.284 17.99 100.091 18.3064C99.8994 18.623 99.7426 18.9746 99.6212 19.3614C99.4991 19.7482 99.413 20.1567 99.3617 20.5865C99.311 21.0163 99.301 21.4344 99.3323 21.8406C99.3637 22.2472 99.4364 22.6301 99.5505 22.9894C99.6639 23.349 99.8226 23.6498 100.027 23.8919C100.2 24.103 100.396 24.2574 100.616 24.3552C100.835 24.4528 101.065 24.5132 101.304 24.5367C101.544 24.5601 101.781 24.5502 102.017 24.5074C102.252 24.4646 102.476 24.4041 102.687 24.3257C102.962 24.2243 103.245 24.0952 103.535 23.9389C103.825 23.7828 104.104 23.5951 104.371 23.3762C104.511 23.2611 104.647 23.1356 104.777 23.001C104.837 23.1479 104.903 23.2901 104.983 23.4232C105.195 23.7747 105.481 24.0601 105.843 24.2788C106.204 24.4976 106.647 24.6029 107.173 24.5953C107.738 24.5874 108.26 24.445 108.739 24.1675C109.217 23.8903 109.61 23.4816 109.916 22.9426C110.374 22.9426 110.825 22.8673 111.269 22.7178C111.265 22.7651 111.261 22.815 111.258 22.8606C111.226 23.2748 111.21 23.556 111.21 23.7046C111.203 23.9624 111.186 24.2808 111.158 24.6597C111.13 25.0388 111.113 25.4373 111.105 25.8554C111.097 26.2734 111.113 26.6954 111.152 27.1215C111.191 27.5472 111.274 27.9342 111.399 28.282C111.525 28.6296 111.703 28.9246 111.935 29.167C112.166 29.4091 112.47 29.5538 112.847 29.6006C113.247 29.6552 113.593 29.5849 113.883 29.3896C114.173 29.1942 114.408 28.9267 114.589 28.5868C114.77 28.2466 114.897 27.854 114.972 27.4086C115.046 26.9632 115.068 26.5158 115.037 26.0664C115.006 25.617 114.923 25.1932 114.789 24.7948C114.656 24.396 114.472 24.0678 114.236 23.8098C114.378 23.771 114.546 23.6968 114.743 23.5872C114.938 23.4779 115.14 23.3548 115.349 23.218C115.4 23.1844 115.451 23.149 115.501 23.1144C115.482 23.3914 115.473 23.5888 115.473 23.7046C115.465 23.9624 115.447 24.2808 115.419 24.6597C115.392 25.0388 115.374 25.4373 115.366 25.8554C115.358 26.2734 115.374 26.6954 115.413 27.1215C115.453 27.5472 115.535 27.9342 115.661 28.282C115.786 28.6296 115.965 28.9246 116.196 29.167C116.428 29.4091 116.732 29.5538 117.109 29.6006C117.509 29.6552 117.854 29.5849 118.144 29.3896C118.435 29.1942 118.671 28.9267 118.851 28.5868C119.032 28.2466 119.159 27.854 119.234 27.4086C119.308 26.9632 119.33 26.5158 119.298 26.0664C119.267 25.617 119.184 25.1932 119.051 24.7948C118.918 24.396 118.733 24.0678 118.498 23.8098C118.639 23.771 118.807 23.6968 119.004 23.5872C119.2 23.4779 119.402 23.3548 119.611 23.218C119.718 23.1469 119.826 23.0736 119.933 22.9982C119.974 23.3804 120.06 23.7156 120.199 23.9975C120.368 24.3415 120.597 24.6071 120.887 24.7948C121.178 24.9821 121.519 25.0858 121.912 25.1052C122.304 25.1246 122.732 25.0524 123.195 24.8883C123.54 24.7634 123.84 24.6071 124.096 24.4196C124.35 24.2319 124.58 24.0033 124.784 23.7338C124.796 23.7182 124.807 23.7012 124.819 23.6855C124.855 23.795 124.896 23.9001 124.943 23.9975C125.112 24.3415 125.342 24.6071 125.632 24.7948C125.922 24.9821 126.264 25.0858 126.656 25.1052C127.048 25.1246 127.476 25.0524 127.94 24.8883C128.284 24.7634 128.585 24.6071 128.84 24.4196C129.095 24.2319 129.325 24.0033 129.529 23.7338C129.733 23.4641 129.919 23.1534 130.088 22.8018C130.256 22.4502 130.427 22.0479 130.6 21.5945C130.631 21.4696 130.601 21.3582 130.511 21.2604Z" fill="#0D0C23"/>
</g>
<defs>
<clipPath id="clip0_406_268">
<rect width="106.071" height="20" fill="white" transform="translate(24.9644 10.1011)"/>
</clipPath>
</defs>
</svg>
