<svg width="33" height="33" viewBox="0 0 33 33" fill="none" xmlns="http://www.w3.org/2000/svg">
<path d="M25.5238 0.523926H6.8571C3.17576 0.523926 0.19043 3.50926 0.19043 7.19059V25.8573C0.19043 29.5386 3.17576 32.5239 6.8571 32.5239H25.5238C29.2064 32.5239 32.1904 29.5386 32.1904 25.8573V7.19059C32.1904 3.50926 29.2064 0.523926 25.5238 0.523926ZM10.8571 25.8573H6.8571V11.1906H10.8571V25.8573ZM8.8571 9.49993C7.5691 9.49993 6.52376 8.44659 6.52376 7.14793C6.52376 5.84926 7.5691 4.79593 8.8571 4.79593C10.1451 4.79593 11.1904 5.84926 11.1904 7.14793C11.1904 8.44659 10.1464 9.49993 8.8571 9.49993ZM26.8571 25.8573H22.8571V18.3853C22.8571 13.8946 17.5238 14.2346 17.5238 18.3853V25.8573H13.5238V11.1906H17.5238V13.5439C19.3851 10.0959 26.8571 9.84126 26.8571 16.8453V25.8573Z" fill="#0066FF"/>
</svg>
