<svg width="41" height="41" viewBox="0 0 41 41" fill="none" xmlns="http://www.w3.org/2000/svg">
<rect x="0.19043" y="0.524902" width="40" height="40" rx="20" fill="#0066FF"/>
<path d="M26.9404 17.3999C26.9404 21.1173 20.1904 31.2912 20.1904 31.2912C20.1904 31.2912 13.4404 21.1173 13.4404 17.3999C13.4404 13.6825 16.473 10.6499 20.1904 10.6499C23.9078 10.6499 26.9404 13.6825 26.9404 17.3999Z" fill="white" stroke="white" stroke-width="0.978261" stroke-miterlimit="10" stroke-linecap="round" stroke-linejoin="round"/>
<path d="M20.19 20.4323C22.081 20.4323 23.6139 18.8994 23.6139 17.0084C23.6139 15.1174 22.081 13.5845 20.19 13.5845C18.2991 13.5845 16.7661 15.1174 16.7661 17.0084C16.7661 18.8994 18.2991 20.4323 20.19 20.4323Z" fill="#0066FF"/>
<path d="M15.1904 31.7749H25.8154" stroke="white" stroke-width="1.25" stroke-linecap="round"/>
</svg>
