<svg width="91" height="17" viewBox="0 0 91 17" fill="none" xmlns="http://www.w3.org/2000/svg">
<g clip-path="url(#clip0_267_1096)">
<path d="M25.6794 13.9325C22.6168 13.9325 20.1682 11.5502 20.1682 8.49986C20.1682 5.4495 22.6151 3.06714 25.6794 3.06714C28.7438 3.06714 31.1907 5.45125 31.1907 8.49986C31.1907 11.5484 28.758 13.9325 25.6794 13.9325ZM25.6794 12.6297C28.0219 12.6297 29.7947 10.809 29.7947 8.49986C29.7947 6.19072 28.0219 4.36994 25.6794 4.36994C23.337 4.36994 21.5801 6.19072 21.5801 8.49986C21.5801 10.809 23.3528 12.6297 25.6794 12.6297Z" fill="white"/>
<path d="M40.2794 13.7548L33.7915 5.56825V13.7548H32.3955V3.24518H33.611L40.0989 11.4317V3.24518H41.4807V13.7548H40.2794Z" fill="white"/>
<path d="M43.115 3.24518H49.3322V4.54799H44.511V7.73087H48.4299V9.03366H44.511V12.4537H49.3322V13.7566H43.115V3.24518Z" fill="white"/>
<path d="M54.1982 12.8375L59.9801 4.54799H54.3645V3.24518H61.8273V4.16255L56.0453 12.452H61.9777V13.7548H54.1982V12.8375Z" fill="white"/>
<path d="M63.3091 3.24518H69.5263V4.54799H64.705V7.73087H68.6239V9.03366H64.705V12.4537H69.5263V13.7566H63.3091V3.24518Z" fill="white"/>
<path d="M70.7812 3.24518H74.4153C76.3825 3.24518 77.5982 4.41544 77.5982 6.14728C77.5982 7.68727 76.6075 8.72323 74.9709 8.96043L79.0703 13.7566H77.3137L73.214 8.97614H72.1772V13.7566H70.7812V3.24518ZM74.2508 7.74482C75.468 7.74482 76.2023 7.19719 76.2023 6.14553C76.2023 5.09387 75.4663 4.51659 74.2508 4.51659H72.179V7.74308H74.2508V7.74482Z" fill="white"/>
<path d="M83.8837 13.9325C80.8214 13.9325 78.3723 11.5502 78.3723 8.49986C78.3723 5.4495 80.8199 3.06714 83.8837 3.06714C86.9482 3.06714 89.395 5.45125 89.395 8.49986C89.395 11.5484 86.962 13.9325 83.8837 13.9325ZM83.8837 12.6297C86.2267 12.6297 87.9993 10.809 87.9993 8.49986C87.9993 6.19072 86.2267 4.36994 83.8837 4.36994C81.5414 4.36994 79.7841 6.19072 79.7841 8.49986C79.7841 10.809 81.5574 12.6297 83.8837 12.6297Z" fill="white"/>
<path d="M8.50116 0.229736C3.87454 0.229736 0.111328 3.93932 0.111328 8.50001C0.111328 13.0607 3.87454 16.7703 8.50116 16.7703C13.1278 16.7703 16.891 13.0607 16.891 8.50001C16.891 3.93932 13.1278 0.229736 8.50116 0.229736ZM15.978 8.50001C15.978 12.5636 12.6235 15.8703 8.50116 15.8703C4.37879 15.8703 1.02426 12.5654 1.02426 8.50001C1.02426 4.43464 4.37879 1.12966 8.50116 1.12966C12.6235 1.12966 15.978 4.43638 15.978 8.50001Z" fill="white"/>
<path d="M8.96106 3.22278H8.0481V13.7778H8.96106V3.22278Z" fill="white"/>
</g>
<defs>
<clipPath id="clip0_267_1096">
<rect width="90" height="16.5405" fill="white" transform="translate(0.111328 0.229736)"/>
</clipPath>
</defs>
</svg>
