<svg width="17" height="17" viewBox="0 0 17 17" fill="none" xmlns="http://www.w3.org/2000/svg">
<path d="M5.19949 7.10899C5.75617 6.55231 5.75617 5.71726 5.19949 5.16059L3.73822 3.69925C3.18154 3.14257 2.34653 3.14257 1.78985 3.69925L0.95484 4.53422C0.258996 5.23007 0.119826 6.34345 0.676501 7.17847C3.04237 10.7273 6.17367 13.8586 9.72248 16.2245C10.5575 16.7811 11.6708 16.642 12.3667 15.9462L13.2017 15.1112C13.7584 14.5545 13.7584 13.7195 13.2017 13.1628L11.7404 11.7015C11.1838 11.1448 10.3487 11.1448 9.79207 11.7015L9.30498 12.1885C7.70453 10.8664 6.10409 9.26597 4.78199 7.66553L5.19949 7.10899Z" fill="#0066FF"/>
<path d="M8.33057 0.498535C12.784 0.498535 16.3328 4.04734 16.3328 8.50075" stroke="#0066FF" stroke-miterlimit="10" stroke-linecap="round" stroke-linejoin="round"/>
<path d="M8.33057 3.28174C11.1835 3.28174 13.5494 5.64761 13.5494 8.50057" stroke="#0066FF" stroke-miterlimit="10" stroke-linecap="round" stroke-linejoin="round"/>
<path d="M8.33057 6.06543C9.65267 6.06543 10.766 7.17878 10.766 8.50089" stroke="#0066FF" stroke-miterlimit="10" stroke-linecap="round" stroke-linejoin="round"/>
</svg>
