<svg width="41" height="41" viewBox="0 0 41 41" fill="none" xmlns="http://www.w3.org/2000/svg">
<rect x="0.19043" y="0.524902" width="40" height="40" rx="20" fill="#0066FF"/>
<path d="M15.7839 19.1809C16.5668 18.3981 16.5668 17.2238 15.7839 16.441L13.729 14.3859C12.9462 13.6031 11.772 13.6031 10.9891 14.3859L9.81489 15.5601C8.83635 16.5387 8.64064 18.1044 9.42347 19.2786C12.7505 24.2692 17.1539 28.6726 22.1444 31.9996C23.3187 32.7824 24.8843 32.5868 25.8629 31.6083L27.0371 30.4341C27.8199 29.6512 27.8199 28.477 27.0371 27.6941L24.9822 25.6391C24.1994 24.8563 23.0251 24.8563 22.2423 25.6391L21.5573 26.324C19.3067 24.4648 17.056 22.2142 15.1968 19.9636L15.7839 19.1809Z" fill="white"/>
<path d="M20.187 9.88525C26.4496 9.88525 31.4402 14.8758 31.4402 21.1384" stroke="white" stroke-width="1.25" stroke-miterlimit="10" stroke-linecap="round" stroke-linejoin="round"/>
<path d="M20.187 13.7993C24.199 13.7993 27.526 17.1263 27.526 21.1383" stroke="white" stroke-width="1.25" stroke-miterlimit="10" stroke-linecap="round" stroke-linejoin="round"/>
<path d="M20.187 17.7129C22.0462 17.7129 23.6119 19.2785 23.6119 21.1378" stroke="white" stroke-width="1.25" stroke-miterlimit="10" stroke-linecap="round" stroke-linejoin="round"/>
</svg>
