<svg width="14" height="14" viewBox="0 0 14 14" fill="none" xmlns="http://www.w3.org/2000/svg">
<g clip-path="url(#clip0_170_728)">
<path d="M2.12923 8.60149C2.24053 8.71278 2.39275 8.75769 2.53744 8.73723L3.58539 9.78518L3.0342 10.4549C2.90102 10.4295 2.77267 10.4578 2.68526 10.5452C2.59785 10.6326 2.56942 10.7609 2.59501 10.8941L1.9645 11.5246C1.83146 11.4992 1.70298 11.5274 1.61556 11.6149C1.52815 11.7023 1.49973 11.8306 1.52531 11.9638L1.11255 12.3766C0.818906 12.2735 0.479207 12.3392 0.244403 12.574C-0.0817932 12.9002 -0.0817932 13.4292 0.244403 13.7554C0.570599 14.0816 1.09962 14.0816 1.42582 13.7554C1.66062 13.5206 1.72643 13.1809 1.62324 12.8872L2.03599 12.4745C2.16903 12.5001 2.29752 12.4716 2.38493 12.3842C2.47234 12.2968 2.50063 12.1685 2.47519 12.0353L3.10569 11.4048C3.23873 11.4304 3.36722 11.4019 3.45463 11.3145C3.54204 11.2271 3.57033 11.0988 3.54488 10.9656L4.21462 10.4144L5.26257 11.4623C5.2421 11.607 5.28701 11.7593 5.3983 11.8706C5.58635 12.0586 5.89136 12.0586 6.07941 11.8706C6.26745 11.6825 6.26745 11.3776 6.07941 11.1895C5.99313 11.1032 5.88241 11.057 5.76956 11.0499L4.76837 10.0487L13.1905 2.73798L13.9998 0L11.2618 0.809244L3.9511 9.23142L2.94991 8.23024C2.94281 8.11738 2.89661 8.00666 2.81034 7.92038C2.6223 7.73234 2.31728 7.73234 2.12923 7.92038C1.94119 8.10843 1.94119 8.41345 2.12923 8.60149Z" fill="#528322"/>
<path d="M11.8705 8.60149C11.7592 8.71278 11.607 8.75769 11.4623 8.73723L10.4144 9.78518L10.9656 10.4549C11.0987 10.4295 11.2271 10.4578 11.3145 10.5452C11.4019 10.6326 11.4303 10.7609 11.4048 10.8941L12.0353 11.5246C12.1683 11.4992 12.2968 11.5274 12.3842 11.6149C12.4716 11.7023 12.5 11.8306 12.4744 11.9638L12.8872 12.3766C13.1808 12.2735 13.5205 12.3392 13.7554 12.574C14.0815 12.9002 14.0815 13.4292 13.7554 13.7554C13.4292 14.0816 12.9001 14.0816 12.5739 13.7554C12.3391 13.5206 12.2733 13.1809 12.3765 12.8872L11.9638 12.4745C11.8307 12.5001 11.7022 12.4716 11.6148 12.3842C11.5274 12.2968 11.4991 12.1685 11.5246 12.0353L10.8941 11.4048C10.761 11.4304 10.6325 11.4019 10.5451 11.3145C10.4577 11.2271 10.4294 11.0988 10.4549 10.9656L9.78514 10.4144L8.73719 11.4623C8.75766 11.607 8.71274 11.7593 8.60145 11.8706C8.41341 12.0586 8.10839 12.0586 7.92035 11.8706C7.73231 11.6825 7.73231 11.3776 7.92035 11.1895C8.00662 11.1032 8.11735 11.057 8.2302 11.0499L9.23139 10.0487L0.809207 2.73798L-3.52859e-05 0L2.73794 0.809244L10.0487 9.23142L11.0498 8.23024C11.0569 8.11738 11.1031 8.00666 11.1894 7.92038C11.3775 7.73234 11.6825 7.73234 11.8705 7.92038C12.0586 8.10843 12.0586 8.41345 11.8705 8.60149Z" fill="#528322"/>
</g>
<defs>
<clipPath id="clip0_170_728">
<rect width="14" height="14" fill="white"/>
</clipPath>
</defs>
</svg>
